<?xml version="1.0" encoding="utf-8"?>
<!-- Generator: Adobe Illustrator 23.0.3, SVG Export Plug-In . SVG Version: 6.00 Build 0)  -->
<svg version="1.1" id="Capa_1" xmlns="http://www.w3.org/2000/svg" xmlns:xlink="http://www.w3.org/1999/xlink" x="0px" y="0px"
	 viewBox="0 0 280.9 289" style="enable-background:new 0 0 280.9 289;" xml:space="preserve">
<style type="text/css">
	.st0{fill:#D78C07;}
</style>
<g>
	<path class="st0" d="M236.6,209.4c4.8-11.4,8.1-24.2,9.7-37c2.4-20.4,0.4-39.8-4.8-57.8c-0.8-3.3-1.6-6.6-3.2-9
		c-1.6-2.4-5.6-0.9-8.5-0.5c-16.1,3.8-33.4-1.4-48.7,7.1c15.7-6.2,33.8,3.8,51.1,2.8c5.6,17.1,8.1,36.5,5.6,55.9
		c-1.2,9-3.2,18-6,26.5c0.8,2.8,2,5.2,2.8,8.1c-1.2-2.4-2-5.2-3.2-7.6c-11.3-27.5-20.9-54-24.6-54c-1.6-3.3-23.8,14.2-23.8,14.2
		s-23-74.4-31-75.4c-8.1-0.5-41.1,63-41.1,63s-8.1-16.1-14.9-8.5c-8.5,10-27.8,42.7-45.5,74.9c-0.4,0.5-0.8,0.9-0.8,1.9
		c-8.9-17.1-13.7-37-13.3-57.8c8.9-2.4,17.3-6.2,25.4-10.9c-7.7,3.3-12.1,5.2-25.4,4.7c-4.8,0-9.3-1.9-9.3,2.4c0,4.3,0,4.3,0,6.2
		c0,24.2,6,46.9,16.9,65.9c-16.1,29.4-25,22.7-25.4,24.6c6.8-1.4,17.3,7.6,32.6-18c2-2.8,3.6-6.2,5.6-9
		c17.7-29.4,34.6-59.2,39.5-61.1c16.1-1.9,10.1,76.8,58.4,74.9c-31.4-45.5-35-65.4-35.8-73.5c-0.8-8.1,20.9-37,28.2-47.4
		c7.3-10,27.8,94.8,51.5,84.8c-6.4-13.3-9.7-19.9-11.7-23.7c-1.6-3.8,6-7.6,12.9-6.6c3.6,0.5,14.1,22.7,25.4,41.7
		c1.6,2.8,3.6,6.2,5.2,9l0,0c7.2,11.8,28.6,35.1,33.4,32.7C259.5,244.9,240.6,220.3,236.6,209.4"/>
	<path class="st0" d="M94,129.8c-14.5,6.2-36.2,2.4-54.8,0.5c12.1-56.4,60-94.8,112-87.2c28.2,3.8,51.5,20.9,67.3,44.1
		c-17.7,3.8-35.4,2.4-52.4,11.4c17.7-7.1,37.1-5.2,57.2-2.8c3.6,0.5,11.3,2.4,10.1,0c-1.2-2.4-3.6-7.1-5.6-10.4
		c-16.5-28-43.5-47.9-75.7-52.6C95.2,24.6,42.4,67.2,30,129.3c-0.8,3.3-2,7.6-1.6,10.4c0.4,2.4,5.6,0.5,9.7-0.5
		C56.1,135,78.7,138.8,94,129.8"/>
</g>
</svg>
