<?xml version="1.0" encoding="utf-8"?>
<!-- Generator: Adobe Illustrator 16.0.0, SVG Export Plug-In . SVG Version: 6.00 Build 0)  -->
<!DOCTYPE svg PUBLIC "-//W3C//DTD SVG 1.1//EN" "http://www.w3.org/Graphics/SVG/1.1/DTD/svg11.dtd">
<svg version="1.1" id="Capa_2" xmlns="http://www.w3.org/2000/svg" xmlns:xlink="http://www.w3.org/1999/xlink" x="0px" y="0px"
	 width="1051px" height="289px" viewBox="-207.5 309.5 1051 289" enable-background="new -207.5 309.5 1051 289"
	 xml:space="preserve">
<g>
	<g>
		<path fill="#D78C07" d="M29.061,518.904c4.834-11.375,8.055-24.17,9.667-36.967c2.416-20.377,0.403-39.809-4.833-57.816
			c-0.806-3.316-1.611-6.635-3.222-9.004c-1.612-2.368-5.638-0.947-8.458-0.475c-16.108,3.792-33.426-1.422-48.73,7.109
			c15.707-6.16,33.829,3.792,51.146,2.844c5.638,17.062,8.054,36.492,5.638,55.922c-1.209,9.003-3.222,18.009-6.041,26.541
			c0.806,2.843,2.013,5.212,2.818,8.055c-1.208-2.368-2.013-5.212-3.222-7.582C12.549,480.043,2.885,453.503-0.74,453.503
			c-1.612-3.317-23.762,14.216-23.762,14.216s-22.957-74.402-31.011-75.351c-8.054-0.474-41.078,63.032-41.078,63.032
			s-8.054-16.114-14.899-8.532c-8.458,9.951-27.788,42.653-45.509,74.88c-0.403,0.473-0.806,0.945-0.806,1.896
			c-8.86-17.062-13.692-36.967-13.289-57.818c8.86-2.371,17.317-6.161,25.372-10.9c-7.651,3.317-12.083,5.214-25.372,4.739
			c-4.834,0-9.263-1.896-9.263,2.369c0,4.267,0,4.267,0,6.162c0,24.168,6.041,46.916,16.914,65.874
			c-16.108,29.384-24.968,22.748-25.372,24.643c6.847-1.422,17.317,7.584,32.62-18.009c2.013-2.844,3.625-6.161,5.638-9.005
			c17.721-29.382,34.636-59.237,39.468-61.134c16.108-1.896,10.067,76.774,58.395,74.878
			c-31.413-45.494-35.036-65.401-35.842-73.458c-0.807-8.058,20.941-36.965,28.191-47.391c7.25-9.952,27.788,94.783,51.548,84.831
			c-6.445-13.269-9.667-19.904-11.678-23.697c-1.612-3.79,6.041-7.58,12.886-6.634c3.625,0.475,14.096,22.749,25.372,41.704
			c1.611,2.846,3.625,6.161,5.235,9.005l0,0c7.249,11.85,28.594,35.07,33.427,32.701C52.017,554.446,33.089,529.803,29.061,518.904"
			/>
		<path fill="#D78C07" d="M-113.504,439.285c-14.499,6.162-36.245,2.37-54.772,0.475c12.083-56.396,60.007-94.781,111.96-87.201
			c28.191,3.792,51.548,20.853,67.256,44.075c-17.721,3.791-35.441,2.368-52.356,11.373c17.721-7.109,37.052-5.212,57.188-2.843
			c3.625,0.475,11.276,2.368,10.067,0c-1.209-2.369-3.625-7.109-5.638-10.427c-16.512-27.962-43.496-47.865-75.713-52.604
			c-56.785-8.056-109.542,34.597-122.026,96.679c-0.806,3.316-2.013,7.582-1.611,10.426c0.403,2.369,5.638,0.475,9.666-0.475
			C-151.361,444.498-128.807,448.29-113.504,439.285"/>
	</g>
	<g>
		<g>
			<path fill="#D78C07" d="M87.055,443.55c-8.054-3.317-14.499-7.583-19.33-13.27c-4.834-5.688-7.25-12.796-7.25-20.853
				c0-8.058,2.417-15.165,7.651-20.853c5.236-6.161,11.277-9.004,18.93-9.004c7.249,0,13.692,3.318,18.928,9.479
				c2.819,3.317,4.834,7.583,6.443,13.27l-12.483,5.687c-1.612-4.738-2.818-8.056-4.027-9.478c-2.416-2.844-5.639-4.741-8.861-4.741
				c-3.222,0-6.041,1.422-8.458,4.266c-2.416,2.843-3.625,6.635-3.625,11.375c0,4.737,1.209,8.529,4.027,11.375
				c2.818,2.843,6.443,5.686,11.276,8.528c8.861,3.317,16.512,8.532,22.553,15.64c6.845,8.057,10.47,17.534,10.47,28.436
				c0,10.9-3.222,20.377-10.067,28.435c-6.846,8.057-15.305,11.848-24.969,11.848c-10.067,0-18.525-4.268-25.372-12.322
				c-5.236-6.159-8.861-14.689-10.068-24.643l13.693-5.687c0.806,9.477,3.222,16.587,6.845,20.854
				c4.027,4.738,9.263,7.108,14.901,7.108c5.638,0,10.874-2.37,14.901-7.583c4.43-5.212,6.443-11.375,6.443-18.955
				c0-7.585-2.014-13.744-6.443-18.485C97.929,450.186,92.693,446.395,87.055,443.55z"/>
			<path fill="#D78C07" d="M225.998,399.477c11.276,13.27,16.914,29.383,16.914,47.864c0,18.484-5.638,34.597-16.914,47.866
				c-11.277,13.271-24.969,19.902-41.481,19.902c-16.108,0-30.204-6.632-41.482-19.902c-11.276-13.271-16.914-29.384-16.914-47.866
				c0-18.481,5.638-34.12,16.914-47.864c11.277-13.743,24.969-19.904,41.482-19.904
				C201.027,379.099,214.719,385.733,225.998,399.477z M184.515,393.789c-12.083,0-22.15,5.211-31.011,15.641
				c-8.86,10.426-13.289,22.746-13.289,37.439c0,15.164,4.429,27.485,13.29,37.914c8.86,10.424,18.927,15.638,31.01,15.638
				s22.553-5.214,31.01-15.638c8.458-10.429,13.289-22.75,13.289-37.914c0-14.693-4.429-27.487-13.289-37.439
				C206.665,399.477,196.598,393.789,184.515,393.789z"/>
			<path fill="#D78C07" d="M251.368,513.216V380.993h14.095v117.532h40.274v14.219h-54.369V513.216z"/>
			<path fill="#D78C07" d="M440.248,400.897c10.875,12.796,16.512,28.908,16.512,46.918c0,18.482-5.637,34.12-16.512,46.919
				c-10.874,12.795-24.566,19.43-39.87,19.43c-15.707,0-28.996-6.635-39.869-19.43c-10.876-12.799-16.513-28.909-16.513-46.919
				c0-18.484,5.637-34.122,16.513-46.918c10.873-12.795,24.563-19.43,39.869-19.43C415.682,381.467,429.375,388.102,440.248,400.897
				z M400.378,389.051c-13.694,0-25.773,5.687-35.439,17.533c-9.665,11.375-14.9,25.591-14.9,41.706
				c0,16.113,4.832,30.33,14.9,41.707c9.664,11.371,21.745,17.532,35.439,17.532c13.693,0,25.774-5.687,35.441-17.532
				c9.663-11.377,14.898-25.594,14.898-41.707c0-16.115-4.832-30.331-14.898-41.706
				C425.751,394.737,414.071,389.051,400.378,389.051z"/>
			<path fill="#D78C07" d="M472.87,383.364l73.297,120.847V383.364h6.041v129.852h-9.667l-71.686-118.005v118.005h-6.042V383.364
				H472.87z"/>
			<path fill="#D78C07" d="M564.288,513.216V380.993h14.096v117.532h40.273v14.219h-54.369V513.216z"/>
			<path fill="#D78C07" d="M641.21,380.993v132.223h-14.096V380.993H641.21L641.21,380.993z"/>
			<path fill="#D78C07" d="M667.791,380.993l64.034,105.684V380.993h14.096v132.223h-15.709l-62.423-102.841v102.841h-14.095
				V380.993H667.791L667.791,380.993z"/>
			<path fill="#D78C07" d="M818.814,380.993v14.218h-47.119v44.549h47.119v14.22h-47.119v44.545h47.119v14.219H758v-131.75H818.814
				L818.814,380.993z"/>
		</g>
	</g>
</g>
</svg>
