<?xml version="1.0" encoding="utf-8"?>
<!-- Generator: Adobe Illustrator 24.2.0, SVG Export Plug-In . SVG Version: 6.00 Build 0)  -->
<svg version="1.1" id="Capa_1" xmlns="http://www.w3.org/2000/svg" xmlns:xlink="http://www.w3.org/1999/xlink" x="0px" y="0px"
	viewBox="0 0 269.6 89.7" style="enable-background:new 0 0 269.6 89.7;" xml:space="preserve">
<style type="text/css">
	.st0{fill:#006633;}
	.st1{fill:url(#SVGID_1_);}
	.st2{fill:url(#SVGID_2_);}
	.st3{fill:#FFD528;}
	.st4{font-family:'Ubuntu-Light';}
	.st5{font-size:8.1771px;}
	.st6{letter-spacing:2;}
</style>
	<g>
	<path class="st0" d="M63.1,14.9h12.5l16.3,22v-22h12.6v39.8H92L75.8,32.8v21.8H63.1V14.9z"/>
		<path class="st0" d="M114.1,14.9h13.4v39.8h-13.4V14.9z"/>
		<path class="st0" d="M136.1,14.9h38v7.9l-24.4,23.3h25.3v8.5h-41.2v-8.2l24.1-23h-21.8V14.9z"/>
		<path class="st0" d="M207.7,48.1h-15.2l-2.1,6.6h-13.7l16.3-39.8h14.6l16.3,39.8h-14L207.7,48.1z M204.9,39.5l-4.8-14.3l-4.7,14.3
		H204.9z"/>
		<path class="st0" d="M248.9,40.2v-8.3h20.7v16.9c-4,2.5-7.5,4.2-10.5,5.1c-3,0.9-6.7,1.3-10.9,1.3c-5.2,0-9.4-0.8-12.6-2.4
		c-3.2-1.6-5.8-4-7.6-7.2c-1.8-3.2-2.7-6.8-2.7-11c0-4.3,1-8.1,2.9-11.3c2-3.2,4.8-5.6,8.6-7.3c2.9-1.3,6.9-1.9,11.9-1.9
		c4.8,0,8.4,0.4,10.8,1.2c2.4,0.8,4.4,2,5.9,3.7c1.6,1.7,2.7,3.8,3.5,6.4l-12.9,2.1c-0.5-1.5-1.4-2.6-2.7-3.4
		c-1.3-0.8-2.9-1.2-4.9-1.2c-2.9,0-5.3,0.9-7,2.8c-1.7,1.9-2.6,4.8-2.6,8.9c0,4.3,0.9,7.4,2.7,9.2c1.8,1.8,4.2,2.8,7.4,2.8
		c1.5,0,2.9-0.2,4.3-0.6c1.4-0.4,2.9-1.1,4.7-2v-3.7H248.9z"/>
</g>
	<g>
	<path class="st0" d="M32,49.9c-0.1-0.6-0.2-1.1-0.3-1.7c-0.1-0.6-0.2-1.2-0.2-1.9c-0.1-1.3,0-2.5,0.1-3.6c0.1-1.2,0.3-2.3,0.5-3.4
		c0.3-1.7,0.8-3.4,1.3-5.1L15,16L8.3,9.3c0,0,0,0,0,0c0,0,0,0,0,0C7.4,8.4,6.2,7.9,5,7.9c-2.7,0-5,2.5-5,5.6v7.4V42v29.2
		c0.1,0,0.3,0,0.4,0c8.1,0,14.6-6.5,14.6-14.6V35.9l17.9,17.9c-0.1-0.2-0.1-0.4-0.2-0.6C32.4,52.1,32.2,51,32,49.9z"/>
</g>
	<g>
	<linearGradient id="SVGID_1_" gradientUnits="userSpaceOnUse" x1="42.288" y1="-9.094947e-13" x2="42.288" y2="73.7284">
		<stop  offset="0" style="stop-color:#95F22F"/>
		<stop  offset="1" style="stop-color:#008A43"/>
	</linearGradient>
		<path class="st1" d="M42.3,43.1c0,3.3,0.4,6.5,1.1,9.4c-0.4-0.8-0.9-1.7-1.2-2.5c-0.3-0.8-0.6-1.6-0.9-2.4
		c-0.1-0.4-0.3-0.8-0.4-1.2l-0.3-1.1c-0.1-0.7-0.2-1.5-0.3-2.3c-0.1-0.8-0.1-1.7,0-2.6c0.1-3.5,0.9-7.1,2.3-10.5
		c1.3-3.4,3.2-6.7,5.5-9.8c0.6-0.8,1.2-1.5,1.8-2.3c0.6-0.7,1.4-1.8,2-2.9c0.5-1.1,0.9-2.2,1.1-3.3c0.1-0.6,0.2-1.1,0.2-1.7
		c0-0.3,0-0.6,0-0.9c0-0.3,0-0.6,0-1c-0.1-1.2-0.5-2.3-0.9-3.4c-0.5-1.1-1.2-2.1-2.1-2.8c-0.9-0.8-2-1.3-3.1-1.6
		C45.9,0,44.8,0,43.7,0c-1.1,0.1-2.1,0.3-3.1,0.7c-1,0.4-1.9,1.1-2.6,1.9c-1.4,1.6-1.9,3.7-2,5.7c0.3-2,1.2-3.9,2.6-5.1
		C40,2,41.9,1.6,43.7,1.7c1.9,0.1,3.6,0.8,4.6,2c1,1.2,1.5,3,1.5,4.6c0,0.1,0,0.3-0.1,0.5c0,0.2-0.1,0.4-0.1,0.6
		c-0.1,0.4-0.2,0.8-0.4,1.2c-0.3,0.8-0.7,1.6-1.1,2.2c-0.5,0.7-0.9,1.1-1.7,1.8c-0.7,0.7-1.5,1.4-2.2,2.1c-2.9,3-5.6,6.4-7.7,10.1
		c-2.1,3.8-3.7,7.9-4.5,12.4c-0.2,1.1-0.4,2.2-0.5,3.4c-0.1,1.2-0.1,2.3-0.1,3.6c0.1,0.7,0.1,1.3,0.2,1.9c0.1,0.6,0.2,1.1,0.3,1.7
		c0.2,1.1,0.5,2.2,0.8,3.3c1.2,4.3,3.1,8.7,6.4,12.6c1.6,1.9,3.6,3.7,5.9,5.1c2,1.3,4.3,2.2,6.6,2.8V20.3
		C46.2,23.9,42.3,32.7,42.3,43.1z"/>
</g>
	<linearGradient id="SVGID_2_" gradientUnits="userSpaceOnUse" x1="43.3738" y1="15.8598" x2="43.3738" y2="1.2449">
	<stop  offset="0" style="stop-color:#FCEA10"/>
		<stop  offset="1" style="stop-color:#FFD528"/>
</linearGradient>
	<circle class="st2" cx="43.4" cy="8.6" r="7.3"/>
	<rect x="63.1" y="59.2" class="st3" width="206.4" height="2.3"/>
	<text transform="matrix(1 0 0 1 64.1481 70.269)" class="st0 st4 st5 st6">Cooperativa de Ahorro y Crédito</text>
	<g>
	<path class="st0" d="M204.3,87.1c-0.4,0-0.9-0.1-1-0.5c0-0.1,0-0.1,0-0.2c0-0.6,0.3-1.8,0.7-3.3c0.7-2.5,1.7-5.5,2-6.2
		c0.1-0.2,0.2-0.2,0.5-0.2c0.5,0,1.1,0.3,1.1,0.6l0,0.1c-0.6,1.5-1.1,3.1-1.5,4.6l0.2,0c0.7,0,1.6-0.8,2.3-1.7c0.5-0.7,1-1.7,1-2.6
		c0-0.7-0.4-1.4-1.5-1.5c-0.2,0-0.5-0.1-0.8-0.1c-2.3,0-5.4,1.2-5.9,3.6c0,0.1-0.1,0.2-0.2,0.2l-0.1,0c-0.4-0.2-0.8-1.1-0.8-1.8
		c0-0.3,0.1-0.6,0.3-0.7c1.7-1.5,3.8-2,6-2h0.2c2.5,0,4.3,1,4.3,3c0,0.6-0.2,1.2-0.5,2c-0.7,1.4-2,2.7-3.5,2.8h-0.2
		c-0.4,0-0.6-0.1-0.9-0.4c-0.4,1.4-1.1,3.6-1.1,4.3c0,0.1-0.1,0.2-0.2,0.2H204.3z"/>
		<path class="st0" d="M210.2,83.9c0-2,1.3-4.5,3-4.5c0.1,0,0.3,0,0.5,0.1c0.9,0.2,1.2,1,1.2,1.9c0,0.5-0.1,1.2-0.2,1.6h0
		c1.1,0,2-2.1,2.3-3c-0.2-0.1-0.2-0.3-0.2-0.5c0-0.3,0.1-0.5,0.2-0.8c0.1-0.1,0.2-0.2,0.4-0.2c0.2,0,0.4,0.1,0.4,0.2v0.1l-0.3,0.8
		c0.5,0,0.9-0.2,1.2-0.2c0.6,0,1,0.3,1.1,1c0,0.7-1.2,3.3-1.2,4.8c0,0.4,0,0.5,0.2,0.5c0.2,0,0.6-0.4,0.7-0.6
		c0.4-0.5,0.8-1.5,1.5-3.1c0-0.1,0.1-0.1,0.1-0.1c0.1,0,0.2,0.1,0.2,0.2c0,0,0,0,0,0.1c-1.5,3.3-1.9,3.8-2.5,3.8h-0.2
		c-0.4,0-1.1,0-1.3-0.4c-0.1-0.2-0.1-0.5-0.1-0.8c0-1.4,0.9-3.8,1.3-4.8c-0.3,0-0.6,0.1-0.9,0.1l-0.3,0c-0.5,1.2-1.2,3.2-2.6,3.2
		h-0.1c-0.4,1.2-1.3,2.7-2.6,2.7C210.6,86.1,210.2,85.2,210.2,83.9z M213.6,83.1c-0.3-0.2-0.4-0.6-0.4-0.9c0-0.5,0.3-1.1,0.7-1.2
		c-0.1-0.2-0.1-0.4-0.4-0.4c-0.9,0.1-2,2.6-2,4.1c0,0.6,0.1,0.8,0.4,0.9C212.7,85.5,213.4,83.7,213.6,83.1z"/>
		<path class="st0" d="M226,86.1c-0.4,0-0.9-0.1-1-0.5c-0.1-0.2-0.1-0.5-0.1-0.9c0-1.5,0.8-3.9,1.5-5.8c-0.4,0-0.7,0-1,0
		c-0.1,0-0.2-0.1-0.2-0.2c0-0.1,0.1-0.2,0.2-0.2l1.2,0c0.2-0.6,0.5-1.2,0.7-1.6c0.1-0.2,0.2-0.2,0.5-0.2c0.5,0,1.2,0.3,1.2,0.6
		l0,0.1c-0.2,0.4-0.3,0.8-0.5,1.2l0.9,0c0.1,0,0.2,0.1,0.2,0.2s-0.1,0.2-0.2,0.2c-0.3,0-0.7,0-1.1,0c-0.6,1.7-1.2,3.7-1.6,5.3
		c0,0.1-0.2,0.9-0.2,1.2c0,0.1,0,0.2,0.1,0.2c0.2,0,0.6-0.5,0.7-0.6c0.6-0.8,1.2-2.2,1.6-3c0-0.1,0.1-0.1,0.2-0.1c0,0,0.1,0,0.1,0
		c0.1,0,0.1,0.1,0.1,0.2c0,0,0,0,0,0.1c-0.4,0.9-1.1,2.3-1.7,3.2c-0.2,0.3-0.6,0.7-0.9,0.7H226z"/>
		<path class="st0" d="M231.3,85.7c-0.1-0.2-0.1-0.5-0.1-0.8c0-0.2,0-0.5,0.1-0.7c-0.3,0.6-1,1.9-1.7,2h-0.2c-0.5,0-0.9-0.1-1.2-0.5
		c-0.1-0.2-0.1-0.5-0.1-0.8c0-0.4,0.1-0.9,0.2-1.4c0.3-1.3,0.9-3.2,1.2-3.8c0.1-0.2,0.3-0.2,0.5-0.2c0.4,0,1,0.3,1,0.5l0,0.1
		c-0.2,0.6-1.5,3.9-1.5,5.2c0,0.2,0,0.4,0.1,0.4c0.2,0,0.6-0.3,1-1.1c0.4-0.6,0.8-1.6,1.3-3c0.3-0.9,0.6-1.6,0.7-2.1
		c0.1-0.2,0.2-0.2,0.4-0.2c0.4,0,1,0.3,1,0.6l0,0.1c-0.2,0.6-1.5,3.9-1.5,5.2c0,0.2,0,0.4,0.1,0.4c0.1,0,0.1,0.1,0.1,0.2
		s0,0.2-0.1,0.2C232.1,86.2,231.6,86.1,231.3,85.7z"/>
		<path class="st0" d="M237,89c-0.1-0.1-0.1-0.3-0.1-0.5v0c0-1.2,0.9-4.7,1.2-5.7c0.8-2.7,1.6-5.1,2-5.9c0.1-0.2,0.3-0.2,0.5-0.2
		c0.5,0,1.1,0.3,1.1,0.6l0,0.1c-0.3,0.6-2,5.6-2.1,6.4l0.4,0c0.3,0,0.6,0,0.9-0.2c0.5-0.2,0.9-0.7,1.3-1.6c0-0.1,0.1-0.1,0.2-0.1
		c0.1,0,0.2,0,0.2,0.2l0,0.1c-0.4,0.9-0.9,1.5-1.5,1.8c-0.3,0.2-0.7,0.2-1.1,0.2c0.4,0.4,0.5,0.9,0.5,1.4c0,0.4-0.1,0.8-0.1,1.2
		c-0.2,0.9-0.9,2.9-2,2.9C237.7,89.7,237.2,89.5,237,89z M239.8,86.7c0.1-0.4,0.2-0.8,0.2-1.1c0-0.5-0.1-0.9-0.6-1.2
		c-0.4,1.7-1.1,4.1-1.1,4.8c0,0.1,0,0.1,0,0.2C239,89.1,239.6,87.9,239.8,86.7z"/>
		<path class="st0" d="M246.1,86.1c-0.5,0-0.9-0.1-1.2-0.5c-0.1-0.2-0.1-0.5-0.1-0.8c0-0.2,0-0.5,0.1-0.7c-0.1,0.2-0.3,0.5-0.4,0.8
		c-0.4,0.6-0.9,1.2-1.3,1.2h-0.2c-0.5,0-0.9-0.1-1.2-0.5c-0.1-0.2-0.1-0.5-0.1-0.8c0-0.4,0.1-0.9,0.2-1.4c0.3-1.3,0.9-3.2,1.2-3.8
		c0.1-0.2,0.2-0.2,0.5-0.2c0.4,0,1,0.3,1,0.6l0,0.1c-0.2,0.6-1.5,3.9-1.5,5.2c0,0.3,0,0.4,0.1,0.4c0.2,0,0.6-0.3,1-1.1
		c0.4-0.6,0.8-1.6,1.3-3c0.3-0.9,0.6-1.6,0.7-2.1c0.1-0.2,0.2-0.2,0.5-0.2c0.4,0,1,0.3,1,0.6l0,0.1c-0.2,0.6-1.5,3.9-1.5,5.2
		c0,0.3,0,0.4,0.1,0.4c0.2,0,0.6-0.4,0.9-1c0.5-0.8,1.1-2,1.4-2.7c0-0.1,0.1-0.1,0.2-0.1c0,0,0.1,0,0.1,0c0.1,0,0.1,0.1,0.1,0.2
		c0,0,0,0.1,0,0.1c-0.4,0.8-0.9,2-1.5,2.8c-0.4,0.6-0.8,1-1.2,1.1H246.1z"/>
		<path class="st0" d="M249.3,86.1c-0.4,0-0.9-0.1-1-0.5c-0.1-0.2-0.1-0.5-0.1-0.9c0-1.5,0.8-3.9,1.5-5.8c-0.4,0-0.7,0-1,0
		c-0.1,0-0.2-0.1-0.2-0.2c0-0.1,0.1-0.2,0.2-0.2l1.2,0c0.2-0.6,0.5-1.2,0.7-1.6c0.1-0.2,0.2-0.2,0.5-0.2c0.5,0,1.2,0.3,1.2,0.6
		l0,0.1c-0.2,0.4-0.3,0.8-0.5,1.2l0.9,0c0.1,0,0.2,0.1,0.2,0.2s-0.1,0.2-0.2,0.2c-0.3,0-0.7,0-1.1,0c-0.6,1.7-1.2,3.7-1.6,5.3
		c0,0.1-0.2,0.9-0.2,1.2c0,0.1,0,0.2,0.1,0.2c0.2,0,0.6-0.5,0.7-0.6c0.6-0.8,1.2-2.2,1.6-3c0-0.1,0.1-0.1,0.2-0.1c0,0,0.1,0,0.1,0
		c0.1,0,0.1,0.1,0.1,0.2c0,0,0,0,0,0.1c-0.4,0.9-1.1,2.3-1.7,3.2c-0.2,0.3-0.6,0.7-0.9,0.7H249.3z"/>
		<path class="st0" d="M255.8,86.1c-0.5,0-0.9-0.1-1.2-0.5c-0.1-0.2-0.1-0.5-0.1-0.8c0-0.2,0-0.5,0.1-0.7c-0.1,0.2-0.3,0.5-0.4,0.8
		c-0.4,0.6-0.9,1.2-1.3,1.2h-0.2c-0.5,0-0.9-0.1-1.2-0.5c-0.1-0.2-0.1-0.5-0.1-0.8c0-0.4,0.1-0.9,0.2-1.4c0.3-1.3,0.9-3.2,1.2-3.8
		c0.1-0.2,0.2-0.2,0.5-0.2c0.4,0,1,0.3,1,0.6l0,0.1c-0.2,0.6-1.5,3.9-1.5,5.2c0,0.3,0,0.4,0.1,0.4c0.2,0,0.6-0.3,1-1.1
		c0.4-0.6,0.8-1.6,1.3-3c0.3-0.9,0.6-1.6,0.7-2.1c0.1-0.2,0.2-0.2,0.5-0.2c0.4,0,1,0.3,1,0.6l0,0.1c-0.2,0.6-1.5,3.9-1.5,5.2
		c0,0.3,0,0.4,0.1,0.4c0.2,0,0.6-0.4,0.9-1c0.5-0.8,1.1-2,1.4-2.7c0-0.1,0.1-0.1,0.2-0.1c0,0,0.1,0,0.1,0c0.1,0,0.1,0.1,0.1,0.2
		c0,0,0,0.1,0,0.1c-0.4,0.8-0.9,2-1.5,2.8c-0.4,0.6-0.8,1-1.2,1.1H255.8z"/>
		<path class="st0" d="M260.9,86.1c-0.4,0-1.1,0-1.3-0.5c-0.1-0.2-0.1-0.5-0.1-0.8c0-1.4,0.9-3.8,1.3-4.8c-0.2,0-0.6,0.1-0.9,0.1
		c-0.1,0-0.2,0-0.3,0c-0.3,0.7-0.4,1.1-0.9,2.1c0,0.1-0.1,0.1-0.1,0.1c0,0-0.1,0-0.1,0c-0.1,0-0.1-0.1-0.1-0.2c0,0,0,0,0-0.1
		c0.4-1,0.6-1.3,0.9-2.1c-0.2-0.1-0.2-0.3-0.2-0.5c0-0.3,0.1-0.5,0.2-0.8c0.1-0.2,0.3-0.2,0.4-0.2c0.2,0,0.5,0.1,0.5,0.2l0,0.1
		c-0.1,0.3-0.2,0.7-0.3,0.8c0.5,0,0.9-0.2,1.3-0.2c0.5,0,0.9,0.4,1,0.9l0,0.1c0,0.3-0.1,0.7-0.4,1.3c-0.3,0.9-0.9,2.5-0.9,3.5l0,0.3
		c0,0.2,0.1,0.2,0.2,0.2c0.2,0,0.6-0.4,0.7-0.6c0.4-0.5,0.8-1.5,1.5-3.1c0-0.1,0.1-0.1,0.1-0.1c0.1,0,0.1,0,0.1,0
		c0,0,0.1,0.1,0.1,0.2c0,0,0,0,0,0.1c-0.7,1.6-1.2,2.6-1.5,3.1c-0.4,0.6-0.7,0.7-1,0.7H260.9z"/>
		<path class="st0" d="M262.9,84c0-2,1.3-4.5,3-4.5c0.1,0,0.3,0,0.5,0.1c0.9,0.2,1.2,1.1,1.2,2c0,0.7-0.2,1.5-0.4,2
		c-0.4,1.2-1.3,2.7-2.6,2.7C263.4,86.2,262.9,85.2,262.9,84z M266.4,83.2c0.1-0.2,0.3-1.1,0.3-1.7c0-0.4-0.1-0.8-0.4-0.8h-0.1
		c-0.9,0.2-1.9,2.7-1.9,4.1c0,0.5,0.1,0.8,0.4,0.9h0.1C265.5,85.6,266.2,83.7,266.4,83.2z"/>
</g>
</svg>
