<svg id="Capa_1" data-name="Capa 1" xmlns="http://www.w3.org/2000/svg" viewBox="0 0 587 380"><title>icon</title><circle cx="285.04" cy="202.77" r="160.23" style="fill:#fc0b0b"/><path d="M341.19,284l-53.53-67.51L234.14,284a7.11,7.11,0,0,1-5.56,2.68h0A7.08,7.08,0,0,1,223,275.18l55.36-68.87L225.5,140.54A7.09,7.09,0,0,1,231,129h.65a7.11,7.11,0,0,1,5.55,2.68l51,64.11,51.05-64.11a7.11,7.11,0,0,1,5.55-2.68h0a7.09,7.09,0,0,1,5.51,11.54L297.56,206,353,275.19a7.08,7.08,0,0,1-5.54,11.51h-.68A7.09,7.09,0,0,1,341.19,284Z" style="fill:#fff"/></svg>