<svg id="Capa_1" data-name="Capa 1" xmlns="http://www.w3.org/2000/svg" viewBox="0 0 474 391"><title>icon</title><path d="M177.82,155.82c.61-25.76,16.39-47.9,40.84-56.37,25.45-8.81,53.6,2.2,68.35,24.07,10.19,15.12,9.58,32.14,9.56,49.42q0,20.38-.05,40.77c0,10.07,15.6,10.09,15.61,0,.05-39,7.09-83-23.9-112.8-21.09-20.26-54.49-25.61-81-13.73-27.39,12.26-44.28,38.78-45,68.6-.23,10.08,15.38,10.08,15.62,0Z" fill="#fff"/><path d="M166.51,193.11c12.67-.68,22.82-6.46,28.54-18,4.31-8.7,3.6-17.48,5.4-26.64,3.82-19.53,24.57-34.4,44.07-30.87,17.26,3.13,29.22,19.15,29.2,36.21q0,29.27-.13,58.52c-.07,21.13,11.69,35.16,33.84,36,10.07.37,10.06-15.25,0-15.62-24-.87-18.22-25.22-18.17-42.16.07-18.56,3.74-41.93-4.71-59.09-16.42-33.36-57.22-38.54-83.58-14-11,10.24-16.35,24.46-17,39.18-.48,10.65-6,20.3-17.47,20.91-10,.55-10.09,16.17,0,15.62Z" fill="#fff"/><path d="M169.08,218.91A47,47,0,0,0,214.4,193c3.65-7.51,5-15.7,5.59-23.94.11-2.13.15-4.26.1-6.39,0,3-.13,1.07,0,.12a58,58,0,0,1,2.21-8.17c5.55-16.49,27.93-21.17,29.29-.24,1,16.24.23,32.6-5,48.1-10.91,32.21-42.55,43.52-74.1,43.8-10.06.1-10.09,15.72,0,15.62,35.57-.32,70.3-13,85.9-47.1,8.62-18.83,9.09-38.48,8.91-58.71-.16-18.8-11.3-32.77-31.06-31.75-17.15.87-27,17.11-30.7,32.09s-.16,31.23-14.92,41.36a34.19,34.19,0,0,1-21.52,5.49c-10-.82-10,14.8,0,15.62Z" fill="#fff"/><path d="M230.13,160.84c1,10.55-.92,21.42-4.49,31.32-8.87,24.57-33.41,33.38-57.68,33.68-10.06.12-10.1,15.74,0,15.62,29.15-.36,57-11.19,70.07-38.71,6-12.58,9.08-27.94,7.74-41.9-.95-9.93-16.58-10-15.62,0Z" fill="#fff"/><path d="M182.4,282.47c18.09,1.42,37.33-3.44,52.93-12.46A69.54,69.54,0,0,0,251,257.11c2.55-2.72,5-5.36,7.79-7.87,4.42-4.05,5.15-.16,7.55,3.48,7.66,11.62,18.57,21.57,33.23,21,10-.42,10.09-16,0-15.62-16.53.69-18.53-18.52-30.32-25.45-12-7.08-24.58,8.41-31.47,15.77-13.36,14.28-36.28,20-55.36,18.47-10-.79-10,14.84,0,15.62Z" fill="#fff"/><path d="M287.25,274.92c-12.6-2.65-18-18.43-32.79-11.25s-30.92,27-49.63,20.5c-9.54-3.34-13.62,11.75-4.17,15.05,16,5.61,35.12-3.69,47.71-12.79,5.6-4.05,11.54-11.77,17.87-6.4,4.86,4.1,10.44,8.6,16.84,9.94,9.83,2.07,14-13,4.17-15.05Z" fill="#fff"/><path d="M241.63,310c10.55-.93,21.58-3.54,30.59-9.26,8.47-5.38.66-18.91-7.88-13.49a47.44,47.44,0,0,1-15.27,5.86,53.33,53.33,0,0,1-7.42,1.27c-10,.88-10.06,16.5,0,15.62Z" fill="#fff"/><path d="M136.5,108.14h-9.08l0-15.27A22.8,22.8,0,0,1,150.25,70.1h14.28v9.08l-14.28,0a13.74,13.74,0,0,0-13.73,13.7Z" fill="#fff"/><path d="M337.7,108.37h9.08l0-15.27A22.82,22.82,0,0,0,324,70.3l-14.28,0v9.08l14.28,0A13.71,13.71,0,0,1,337.72,93.1Z" fill="#fff"/><path d="M337.5,282.86h9.08l0,15.27a22.81,22.81,0,0,1-22.81,22.76H309.47v-9.08l14.28,0a13.73,13.73,0,0,0,13.72-13.7Z" fill="#fff"/><path d="M136.3,282.63h-9.08l0,15.27A22.82,22.82,0,0,0,150,320.7l14.27,0,0-9.08H150a13.73,13.73,0,0,1-13.7-13.73Z" fill="#fff"/><path d="M379.91,21.76a72,72,0,0,1,72,72V297.28a72,72,0,0,1-72,72H94.09a72,72,0,0,1-72-72V93.72a72,72,0,0,1,72-72H379.91m0-3.53H94.09a75.49,75.49,0,0,0-75.5,75.49V297.28a75.49,75.49,0,0,0,75.5,75.49H379.91a75.49,75.49,0,0,0,75.5-75.49V93.72a75.49,75.49,0,0,0-75.5-75.49Z" fill="#fff"/></svg>