<svg id="Capa_1" data-name="Capa 1" xmlns="http://www.w3.org/2000/svg" viewBox="0 0 474 391"><title>icon</title><path d="M104.88,218.82,78.3,200.76l2.26,31.85H70l2.26-31.85L45.71,218.82l-5.52-9.28,29.59-14-29.59-14,5.52-9.28,26.58,18.06L70,158.39H80.56L78.3,190.24l26.58-18.06,5.51,9.28-29.58,14,29.58,14Z" fill="#fff"/><path d="M212.68,218.82l-26.57-18.06,2.25,31.85H177.83l2.26-31.85-26.57,18.06L148,209.54l29.58-14-29.58-14,5.52-9.28,26.57,18.06-2.26-31.85h10.53l-2.25,31.85,26.57-18.06,5.52,9.28-29.59,14,29.59,14Z" fill="#fff"/><path d="M320.48,218.82l-26.57-18.06,2.26,31.85H285.64l2.25-31.85-26.57,18.06-5.52-9.28,29.59-14-29.59-14,5.52-9.28,26.57,18.06-2.25-31.85h10.53l-2.26,31.85,26.57-18.06,5.52,9.28-29.58,14,29.58,14Z" fill="#fff"/><path d="M428.29,218.82l-26.58-18.06L404,232.61H393.44l2.26-31.85-26.58,18.06-5.51-9.28,29.58-14-29.58-14,5.51-9.28,26.58,18.06-2.26-31.85H404l-2.26,31.85,26.58-18.06,5.52,9.28-29.59,14,29.59,14Z" fill="#fff"/><path d="M379.91,21.76a72,72,0,0,1,72,72V297.28a72,72,0,0,1-72,72H94.09a72,72,0,0,1-72-72V93.72a72,72,0,0,1,72-72H379.91m0-3.53H94.09a75.49,75.49,0,0,0-75.5,75.49V297.28a75.49,75.49,0,0,0,75.5,75.49H379.91a75.49,75.49,0,0,0,75.5-75.49V93.72a75.49,75.49,0,0,0-75.5-75.49Z" fill="#fff"/></svg>