<svg id="Capa_1" data-name="Capa 1" xmlns="http://www.w3.org/2000/svg" viewBox="0 0 714 586"><title>icon</title><path d="M123.36,497.34H110.18L82.75,429H99.23L117,476.79,134.7,429h16.09Z" style="fill:#fff"/><path d="M160,439.18V426.1h15.51v13.08Zm.39,57.68v-52h14.73v52Z" style="fill:#fff"/><path d="M219.52,459.34q-7.36,0-11.58,4.46t-4.22,13.86v19.2H189v-52h14.73v10.47a21.52,21.52,0,0,1,6.11-8.53q3.87-3.19,10.46-2.91v15.41Z" style="fill:#fff"/><path d="M253.54,496.91a23.48,23.48,0,0,1-6.49.82,23.93,23.93,0,0,1-6.16-.73,10.94,10.94,0,0,1-4.75-2.57,12.28,12.28,0,0,1-3.1-4.79,21.66,21.66,0,0,1-1.11-7.52V457.5h-6.21V444.9h6.21V431.62h14.73V444.9h12.21v12.6H246.66v22.2q0,5,4.75,5a15,15,0,0,0,7.27-1.84v11.82A22.86,22.86,0,0,1,253.54,496.91Z" style="fill:#fff"/><path d="M302.2,496.86v-7.43a31.64,31.64,0,0,1-2.76,3.17,19.46,19.46,0,0,1-3.35,2.69,16.24,16.24,0,0,1-4.07,1.85,17.06,17.06,0,0,1-5,.69q-8.43,0-13-5.14t-4.6-14.15V444.9h14.73v28.91q0,5.22,2.33,7.88a8.27,8.27,0,0,0,6.59,2.66,8.74,8.74,0,0,0,6.74-2.66q2.47-2.65,2.47-7.88V444.9h14.73v52Z" style="fill:#fff"/><path d="M360.55,496.86v-5.63a20.29,20.29,0,0,1-6.49,4.8,21.3,21.3,0,0,1-9.21,1.8,23,23,0,0,1-6.93-1,16.16,16.16,0,0,1-5.67-3.06,14.43,14.43,0,0,1-3.83-5,15.7,15.7,0,0,1-1.41-6.83v-.19a16.35,16.35,0,0,1,1.55-7.37,14.25,14.25,0,0,1,4.32-5.14,19.26,19.26,0,0,1,6.59-3.05,32.91,32.91,0,0,1,8.48-1,36.11,36.11,0,0,1,6.93.58,45,45,0,0,1,5.77,1.55v-.87q0-4.65-2.81-7.08t-8.34-2.42a34.26,34.26,0,0,0-7.51.73,50.43,50.43,0,0,0-6.84,2.08l-3.68-11.24a58.07,58.07,0,0,1,8.92-3,47.24,47.24,0,0,1,11.24-1.16q12.12,0,17.64,5.91t5.53,16.48v30.15Zm.29-20.94a22.93,22.93,0,0,0-4.31-1.41,23.59,23.59,0,0,0-5.09-.53,13.17,13.17,0,0,0-7.46,1.84,6.06,6.06,0,0,0-2.72,5.33v.2a5.44,5.44,0,0,0,2.23,4.65,9.56,9.56,0,0,0,5.82,1.65,13,13,0,0,0,8.38-2.52,8,8,0,0,0,3.15-6.59Z" style="fill:#fff"/><path d="M388.18,496.86V426.1h14.73v70.76Z" style="fill:#fff"/><path d="M472.51,490.94A31.82,31.82,0,0,1,459,497.2a44.78,44.78,0,0,1-8.92.82,35.32,35.32,0,0,1-13.86-2.71,33.48,33.48,0,0,1-18.32-18.52,35.81,35.81,0,0,1-2.61-13.67v-.19a35.2,35.2,0,0,1,9.88-24.77,34,34,0,0,1,11.15-7.56,36.32,36.32,0,0,1,14.35-2.76,44.63,44.63,0,0,1,8.67.78,36.85,36.85,0,0,1,7.13,2.13,30.85,30.85,0,0,1,5.91,3.3,39.69,39.69,0,0,1,5,4.26L468,449.26a36.16,36.16,0,0,0-8.09-5.62,20.61,20.61,0,0,0-9.26-2,19,19,0,0,0-7.9,1.64,18.69,18.69,0,0,0-6.25,4.56,21.09,21.09,0,0,0-4.07,6.74,22.84,22.84,0,0,0-1.46,8.19v.19a23.24,23.24,0,0,0,1.46,8.24,21.43,21.43,0,0,0,4,6.79,18.68,18.68,0,0,0,14.2,6.3,20.68,20.68,0,0,0,9.84-2.14,38.33,38.33,0,0,0,8-5.81l9.5,9.59A47.92,47.92,0,0,1,472.51,490.94Z" style="fill:#fff"/><path d="M539.87,481.49a26.65,26.65,0,0,1-5.91,8.58,27.89,27.89,0,0,1-8.92,5.82A29,29,0,0,1,513.8,498a29.57,29.57,0,0,1-11.15-2.08,27.25,27.25,0,0,1-8.87-5.72,26.66,26.66,0,0,1-5.86-8.53,26.11,26.11,0,0,1-2.14-10.52V471a26.07,26.07,0,0,1,2.14-10.52,26.86,26.86,0,0,1,5.91-8.58,28.23,28.23,0,0,1,8.92-5.82A29,29,0,0,1,514,443.93,29.38,29.38,0,0,1,525.14,446a27.2,27.2,0,0,1,8.87,5.72,26.44,26.44,0,0,1,5.86,8.53A26.06,26.06,0,0,1,542,470.78v.2A26.06,26.06,0,0,1,539.87,481.49ZM527.46,471a15.52,15.52,0,0,0-1-5.48,14,14,0,0,0-2.82-4.56,13.77,13.77,0,0,0-4.36-3.15,13.09,13.09,0,0,0-5.52-1.16,13.5,13.5,0,0,0-5.67,1.12,12.47,12.47,0,0,0-4.22,3.05,13.52,13.52,0,0,0-2.67,4.51,16.15,16.15,0,0,0-.92,5.47v.2a15.51,15.51,0,0,0,1,5.47,13.86,13.86,0,0,0,7.13,7.71,13,13,0,0,0,5.57,1.16,13.72,13.72,0,0,0,5.67-1.11,12.46,12.46,0,0,0,4.22-3.06,13.38,13.38,0,0,0,2.66-4.5,16,16,0,0,0,.92-5.48Z" style="fill:#fff"/><path d="M604.23,481.49a26.65,26.65,0,0,1-5.91,8.58,27.89,27.89,0,0,1-8.92,5.82A29,29,0,0,1,578.16,498,29.57,29.57,0,0,1,567,495.94a27.25,27.25,0,0,1-8.87-5.72,26.66,26.66,0,0,1-5.86-8.53,26.11,26.11,0,0,1-2.14-10.52V471a26.07,26.07,0,0,1,2.14-10.52,26.86,26.86,0,0,1,5.91-8.58,28.23,28.23,0,0,1,8.92-5.82,29,29,0,0,1,11.24-2.13A29.38,29.38,0,0,1,589.5,446a27.2,27.2,0,0,1,8.87,5.72,26.44,26.44,0,0,1,5.86,8.53,26.06,26.06,0,0,1,2.14,10.51v.2A26.06,26.06,0,0,1,604.23,481.49ZM591.82,471a15.52,15.52,0,0,0-1-5.48,14,14,0,0,0-2.82-4.56,13.77,13.77,0,0,0-4.36-3.15,13.09,13.09,0,0,0-5.52-1.16,13.57,13.57,0,0,0-5.67,1.12,12.47,12.47,0,0,0-4.22,3.05,13.33,13.33,0,0,0-2.66,4.51,15.91,15.91,0,0,0-.93,5.47v.2a15.51,15.51,0,0,0,1,5.47,13.86,13.86,0,0,0,7.13,7.71,13,13,0,0,0,5.57,1.16,13.72,13.72,0,0,0,5.67-1.11,12.36,12.36,0,0,0,4.22-3.06,13.57,13.57,0,0,0,2.67-4.5,16.2,16.2,0,0,0,.91-5.48Z" style="fill:#fff"/><path d="M669.61,482.46a26.36,26.36,0,0,1-5.23,8.44,21.41,21.41,0,0,1-7.51,5.18,23.44,23.44,0,0,1-8.92,1.75,18.6,18.6,0,0,1-9.74-2.31,25.83,25.83,0,0,1-6.45-5.39v22.24H617V444.9h14.73v7.4a23.26,23.26,0,0,1,6.54-6,18.16,18.16,0,0,1,9.65-2.36,23,23,0,0,1,8.82,1.75,21.88,21.88,0,0,1,7.56,5.18,25.78,25.78,0,0,1,5.28,8.44,30.72,30.72,0,0,1,2,11.48v.2A30.75,30.75,0,0,1,669.61,482.46Zm-12.74-11.68a16.46,16.46,0,0,0-1-5.9,14,14,0,0,0-2.77-4.59,12.24,12.24,0,0,0-4-2.93,11.85,11.85,0,0,0-13.76,2.93,14.66,14.66,0,0,0-2.72,4.59,16.68,16.68,0,0,0-1,5.9v.2a16.72,16.72,0,0,0,1,5.9,14.66,14.66,0,0,0,2.72,4.59,12,12,0,0,0,13.76,2.92,12.07,12.07,0,0,0,4-2.92,14.12,14.12,0,0,0,2.77-4.54,16.39,16.39,0,0,0,1-5.95Z" style="fill:#fff"/><path d="M427.91,210l24.54,24.55-65.38,65.38a10.89,10.89,0,0,1-15.43,0L264.33,192.63a10.89,10.89,0,0,1,0-15.43L374.53,67a6.81,6.81,0,0,1,9.65,0l68.27,68.27-24.54,24.55L387.07,119a10.91,10.91,0,0,0-15.43,0l-61.1,61.11a6.81,6.81,0,0,0,0,9.65l61.1,61.11a10.93,10.93,0,0,0,15.43,0Z" style="fill:#fff"/><path d="M430.64,207.27l50.45-50.45,65.28,65.27a6.84,6.84,0,0,1,0,9.66l-159.3,159.3a10.91,10.91,0,0,1-15.43,0L211.12,230.53a10.91,10.91,0,0,1,0-15.44L228,198.26,371.64,342a10.91,10.91,0,0,0,15.43,0l110.2-110.2A7.12,7.12,0,0,0,498,231a6.84,6.84,0,0,0-.68-8.87l-8.46-8.46a10.91,10.91,0,0,0-15.43,0l-18.19,18.19Z" style="fill:#fff"/></svg>