<?xml version="1.0" encoding="utf-8"?>
<!-- Generator: Adobe Illustrator 24.2.0, SVG Export Plug-In . SVG Version: 6.00 Build 0)  -->
<svg version="1.1" id="Capa_1" xmlns="http://www.w3.org/2000/svg" xmlns:xlink="http://www.w3.org/1999/xlink" x="0px" y="0px"
	viewBox="0 0 526 178.1" style="enable-background:new 0 0 526 178.1;" xml:space="preserve">
<style type="text/css">
	.st0{fill:#4D8ADF;}
</style>
	<g id="Capa_2_1_">
	<g id="Capa_1-2">
		<path class="st0" d="M235.2,74.5h-13.7L193,3.4h17.1l18.5,49.7l18.5-49.7h16.7L235.2,74.5z"/>
		<path class="st0" d="M273.3,14V0.4h16.1V14H273.3z M273.8,74V19.9h15.3V74H273.8z"/>
		<path class="st0" d="M335.3,35c-5.1,0-9.1,1.5-12,4.6c-2.9,3.1-4.4,7.9-4.4,14.4v20h-15.4V19.9h15.4v10.9c1.4-3.4,3.5-6.5,6.4-8.9
			c2.7-2.2,6.3-3.2,10.9-3v16L335.3,35z"/>
		<path class="st0" d="M370.6,74.1c-2.2,0.6-4.5,0.9-6.8,0.9c-2.2,0-4.3-0.2-6.4-0.8c-1.8-0.5-3.5-1.4-4.9-2.7
			c-1.5-1.4-2.6-3.1-3.2-5c-0.8-2.5-1.2-5.2-1.2-7.8V33.1h-6.4V20h6.5V6.2h15.3V20h12.7v13.1h-12.7v23.1c0,3.5,1.6,5.2,4.9,5.2
			c2.6,0,5.2-0.6,7.6-1.9v12.3C374.3,72.7,372.5,73.5,370.6,74.1z"/>
		<path class="st0" d="M421.3,74v-7.7c-0.9,1.2-1.8,2.3-2.9,3.3c-1.1,1.1-2.2,2-3.5,2.8c-1.3,0.8-2.7,1.5-4.2,1.9
			c-1.7,0.5-3.4,0.7-5.2,0.7c-5.8,0-10.4-1.8-13.5-5.3c-3.2-3.6-4.8-8.5-4.8-14.7V20h15.3V50c0,3.6,0.8,6.4,2.4,8.2
			c1.8,1.9,4.3,2.9,6.9,2.8c2.6,0.1,5.2-0.9,7-2.8c1.7-1.8,2.6-4.6,2.6-8.2V20h15.3v54.1L421.3,74z"/>
		<path class="st0" d="M481.9,74v-5.9c-1.9,2.1-4.2,3.8-6.8,5c-3,1.3-6.3,2-9.6,1.9c-2.4,0-4.9-0.3-7.2-1c-2.2-0.7-4.2-1.7-5.9-3.2
			c-1.7-1.4-3.1-3.2-4-5.2c-1-2.2-1.5-4.7-1.5-7.1v-0.2c-0.1-2.6,0.5-5.3,1.6-7.7c1.1-2.1,2.6-3.9,4.5-5.3c2.1-1.5,4.4-2.6,6.9-3.2
			c2.9-0.7,5.8-1.1,8.8-1c2.4,0,4.8,0.2,7.2,0.6c2,0.4,4,0.9,6,1.6v-0.9c0-3.2-1-5.7-2.9-7.4c-1.9-1.7-4.8-2.5-8.7-2.5
			c-2.6,0-5.2,0.2-7.8,0.8c-2.4,0.6-4.8,1.3-7.1,2.2l-3.8-11.7c3-1.3,6.1-2.3,9.3-3.1c3.8-0.9,7.8-1.3,11.7-1.2
			c8.4,0,14.5,2,18.3,6.1s5.7,9.8,5.8,17.1v31.4L481.9,74z M482.2,52.2c-1.4-0.6-2.9-1.1-4.5-1.5c-1.7-0.4-3.5-0.6-5.3-0.6
			c-2.7-0.1-5.4,0.5-7.8,1.9c-1.9,1.2-2.9,3.3-2.8,5.5v0.2c-0.1,1.9,0.8,3.7,2.3,4.8c1.8,1.2,3.9,1.8,6.1,1.7
			c3.1,0.2,6.2-0.8,8.7-2.6c2.1-1.6,3.4-4.2,3.3-6.9L482.2,52.2z"/>
		<path class="st0" d="M510.7,74V0.4H526V74L510.7,74z"/>
		<path class="st0" d="M252.5,155.8c-4.1,3.2-8.9,5.5-14,6.5c-3.1,0.6-6.2,0.9-9.3,0.9c-4.9,0-9.8-0.9-14.4-2.8
			c-8.7-3.6-15.6-10.5-19.1-19.3c-1.8-4.5-2.7-9.3-2.7-14.2v-0.2c-0.1-9.6,3.6-18.9,10.3-25.8c3.3-3.4,7.2-6,11.6-7.9
			c4.7-2,9.8-2.9,15-2.9c3,0,6,0.2,9,0.8c2.5,0.5,5,1.2,7.4,2.2c2.2,0.9,4.2,2.1,6.1,3.4c1.9,1.3,3.6,2.8,5.2,4.4l-9.9,11.4
			c-2.5-2.3-5.4-4.3-8.4-5.8c-3-1.4-6.3-2.1-9.6-2.1c-2.8,0-5.6,0.6-8.2,1.7c-2.5,1.1-4.7,2.7-6.5,4.7c-1.8,2.1-3.3,4.4-4.2,7
			c-1,2.7-1.5,5.6-1.5,8.5v0.2c0,2.9,0.5,5.8,1.5,8.6c0.9,2.6,2.3,5,4.2,7.1c3.7,4.2,9.1,6.6,14.8,6.6c3.5,0.1,7.1-0.7,10.2-2.2
			c3-1.6,5.8-3.7,8.3-6l9.9,10C256.4,152.4,254.5,154.2,252.5,155.8z"/>
		<path class="st0" d="M322.5,146c-1.4,3.4-3.5,6.4-6.1,8.9c-2.7,2.6-5.8,4.7-9.3,6.1c-3.7,1.5-7.7,2.2-11.7,2.2
			c-4,0-7.9-0.7-11.6-2.2c-3.4-1.4-6.6-3.4-9.2-5.9c-2.6-2.5-4.7-5.5-6.1-8.9c-1.5-3.4-2.3-7.2-2.3-10.9V135c0-3.8,0.7-7.5,2.2-10.9
			c1.4-3.3,3.5-6.4,6.1-8.9c2.7-2.6,5.8-4.6,9.3-6.1c3.7-1.5,7.7-2.3,11.7-2.2c4-0.1,7.9,0.7,11.6,2.1c3.4,1.4,6.6,3.4,9.2,5.9
			c2.6,2.5,4.7,5.5,6.1,8.9c1.5,3.5,2.2,7.2,2.2,10.9v0.2C324.8,138.8,324,142.5,322.5,146z M309.6,135c0-1.9-0.4-3.9-1-5.7
			c-0.7-1.8-1.7-3.4-2.9-4.7c-1.3-1.4-2.8-2.5-4.5-3.3c-1.8-0.8-3.8-1.2-5.7-1.2c-2,0-4,0.4-5.9,1.2c-1.7,0.7-3.2,1.8-4.4,3.2
			c-1.2,1.4-2.2,3-2.8,4.7c-0.6,1.8-1,3.8-1,5.7v0.2c0,1.9,0.4,3.9,1,5.7c1.3,3.5,4,6.4,7.4,8c1.8,0.8,3.8,1.2,5.8,1.2
			c2,0,4-0.4,5.9-1.2c1.7-0.7,3.2-1.8,4.4-3.2c1.2-1.4,2.2-3,2.8-4.7c0.6-1.8,1-3.8,1-5.7L309.6,135z"/>
		<path class="st0" d="M389.5,146c-1.4,3.4-3.5,6.4-6.1,8.9c-2.7,2.6-5.8,4.7-9.3,6.1c-3.7,1.5-7.7,2.2-11.7,2.2
			c-4,0-7.9-0.7-11.6-2.2c-3.4-1.4-6.6-3.4-9.2-5.9c-2.6-2.5-4.7-5.5-6.1-8.9c-1.5-3.5-2.2-7.2-2.2-10.9V135c0-3.8,0.7-7.5,2.2-10.9
			c1.4-3.3,3.5-6.4,6.1-8.9c2.7-2.6,5.8-4.6,9.3-6.1c3.7-1.5,7.7-2.3,11.7-2.2c4,0,7.9,0.7,11.6,2.1c3.4,1.4,6.6,3.4,9.2,5.9
			c2.6,2.5,4.7,5.5,6.1,8.9c1.5,3.5,2.2,7.2,2.2,10.9v0.2C391.7,138.8,391,142.5,389.5,146z M376.6,135c0-1.9-0.4-3.9-1-5.7
			c-0.7-1.8-1.7-3.4-2.9-4.7c-1.3-1.4-2.8-2.5-4.5-3.3c-1.8-0.8-3.8-1.2-5.7-1.2c-2,0-4,0.4-5.9,1.2c-1.7,0.7-3.2,1.8-4.4,3.2
			c-1.2,1.4-2.2,3-2.8,4.7c-0.7,1.8-1,3.8-1,5.7v0.2c0,1.9,0.4,3.9,1,5.7c1.3,3.5,4,6.4,7.4,8c1.8,0.8,3.8,1.2,5.8,1.2
			c2,0,4-0.4,5.9-1.2c1.7-0.7,3.2-1.8,4.4-3.2c1.2-1.4,2.2-3,2.8-4.7c0.6-1.8,1-3.8,0.9-5.7L376.6,135z"/>
		<path class="st0" d="M457.5,147c-1.2,3.2-3.1,6.2-5.4,8.8c-2.2,2.3-4.9,4.2-7.8,5.4c-2.9,1.2-6.1,1.8-9.3,1.8
			c-3.5,0.1-7-0.7-10.1-2.4c-2.5-1.5-4.8-3.4-6.7-5.6v23.1h-15.3v-70.2h15.3v7.7c1.8-2.5,4.2-4.6,6.8-6.2c3.1-1.7,6.5-2.6,10-2.5
			c3.1,0,6.3,0.6,9.2,1.8c3,1.2,5.7,3.1,7.9,5.4c2.4,2.5,4.2,5.5,5.5,8.8c1.4,3.8,2.2,7.9,2.1,11.9v0.2
			C459.6,139.1,458.9,143.2,457.5,147z M444.2,134.8c0-2.1-0.3-4.2-1-6.1c-0.6-1.8-1.6-3.4-2.9-4.8c-1.2-1.3-2.6-2.3-4.2-3
			c-4.9-2.2-10.7-1-14.3,3c-1.2,1.4-2.2,3-2.8,4.8c-0.7,2-1.1,4-1,6.1v0.2c0,2.1,0.3,4.2,1,6.1c0.6,1.8,1.6,3.4,2.8,4.8
			c3.6,4,9.4,5.2,14.3,3c1.6-0.7,3-1.7,4.2-3c1.3-1.4,2.2-3,2.9-4.7c0.7-2,1.1-4.1,1-6.2V134.8z"/>
		<path class="st0" d="M119.1,76.8l13,13l-34.6,34.6c-2.2,2.3-5.9,2.3-8.2,0c0,0,0,0,0,0L32.5,67.6c-2.3-2.2-2.3-5.9,0-8.2
			c0,0,0,0,0,0L90.8,1.1c1.4-1.4,3.7-1.4,5.1,0c0,0,0,0,0,0l36.1,36.1l-13,13L97.5,28.6c-2.3-2.3-5.9-2.3-8.2,0c0,0,0,0,0,0L57,61
			c-1.4,1.4-1.4,3.7,0,5.1c0,0,0,0,0,0l32.4,32.4c2.3,2.3,5.9,2.3,8.2,0L119.1,76.8z"/>
		<path class="st0" d="M120.6,75.3l26.7-26.7l34.6,34.6c1.4,1.4,1.4,3.7,0,5.1l-84.3,84.3c-2.3,2.3-5.9,2.3-8.2,0c0,0,0,0,0,0
			l-85-85c-2.3-2.3-2.3-5.9,0-8.2c0,0,0,0,0,0l8.9-8.9l76.1,76.1c2.3,2.3,5.9,2.3,8.2,0c0,0,0,0,0,0l58.3-58.3
			c0.1-0.1,0.3-0.3,0.4-0.4c1.1-1.4,0.9-3.4-0.4-4.7l-4.5-4.5c-2.3-2.3-5.9-2.3-8.2,0c0,0,0,0,0,0l-9.6,9.6L120.6,75.3z"/>
	</g>
</g>
</svg>
