<?xml version="1.0" encoding="utf-8"?>
<!-- Generator: Adobe Illustrator 24.2.0, SVG Export Plug-In . SVG Version: 6.00 Build 0)  -->
<svg version="1.1" id="Capa_1" xmlns="http://www.w3.org/2000/svg" xmlns:xlink="http://www.w3.org/1999/xlink" x="0px" y="0px"
	 viewBox="0 0 280.9 289" style="enable-background:new 0 0 280.9 289;" xml:space="preserve">
<style type="text/css">
	.st0{fill:#96262C;}
	.st1{fill:#F3C300;}
</style>
<g>
	<path class="st0" d="M234,65.5c-20.2-20.2-48.1-32.7-78.9-32.7c-30.8,0-58.7,12.5-78.9,32.7c-20.2,20.2-32.7,48.1-32.7,78.9
		c0,30.8,12.5,58.7,32.7,78.9l17.2-17.2c-15.8-15.8-25.6-37.6-25.6-61.7c0-24.1,9.8-45.9,25.6-61.7c15.8-15.8,37.6-25.6,61.7-25.6
		c24.1,0,45.9,9.8,61.7,25.6c15.8,15.8,25.6,37.6,25.6,61.7c0,24.1-9.8,45.9-25.6,61.7l17.2,17.2c20.2-20.2,32.7-48.1,32.7-78.9
		C266.7,113.6,254.2,85.7,234,65.5z"/>
	<path class="st0" d="M154.7,259.9c-31.9,0-60.7-13-81.7-33.9s-33.9-49.8-33.9-81.7c0-31.9,13-60.7,33.9-81.7s49.8-33.9,81.7-33.9
		s60.7,13,81.7,33.9l16.9-16.9C228,20.5,193.2,4.9,154.7,4.9S81.4,20.5,56.1,45.8c-25.3,25.3-40.9,60.1-40.9,98.6
		c0,38.5,15.6,73.3,40.9,98.6c25.3,25.3,60.1,40.9,98.6,40.9s73.3-15.6,98.6-40.9l-16.9-16.9C215.4,247,186.6,259.9,154.7,259.9z"/>
	<path class="st0" d="M120.1,171.9c0-0.1,0-0.2,0-0.2c-0.1-0.6-0.2-1.1-0.6-1.6c-0.2-0.3-0.4-0.5-0.6-0.7l0,0
		c-0.2-0.1-0.3-0.3-0.5-0.4l-0.1-0.1c-0.2-0.1-0.3-0.1-0.5-0.2c-0.1,0-0.1,0-0.2-0.1c-0.2,0-0.3-0.1-0.4-0.1c-0.1,0-0.2,0-0.3,0
		c0,0-0.1,0-0.1,0c-0.2,0-0.4,0-0.6,0c0,0,0,0,0,0l0,0c-0.1,0-0.2,0-0.3,0c-0.1,0-0.3,0.1-0.4,0.1l-0.1,0c-0.1,0-0.2,0.1-0.2,0.1
		c-0.1,0.1-0.3,0.2-0.4,0.3l-0.2,0.1c-0.2,0.1-0.4,0.3-0.5,0.5l0,0l0,0l-3.2,3.9l-1.7,2c-1.2,1.4-1,3.6,0.5,4.8
		c0.7,0.6,1.6,0.8,2.5,0.7c0.9-0.1,1.7-0.5,2.3-1.2l0.2-0.3l0-0.1l0,0c0.1-0.1,0.1-0.2,0.2-0.3l0,0l0.8-1.1l0,0l3.8-4.6
		C120,173.1,120.1,172.5,120.1,171.9z"/>
	<path class="st0" d="M131.8,174.9c-0.1-1.2-0.7-2.3-1.6-3.1c-0.2-0.2-0.4-0.3-0.7-0.5l-0.2-0.1v0c-0.2-0.1-0.4-0.2-0.5-0.2
		c-0.1,0-0.2,0-0.3-0.1c0,0,0,0,0,0l0,0c0,0,0,0-0.1,0c-0.2,0-0.3-0.1-0.5-0.1c-0.1,0-0.2,0-0.3,0c-0.2,0-0.5,0-0.7,0
		c-1.2,0.1-2.3,0.7-3.1,1.6l-2.2,2.7c-0.1,0.1-0.3,0.4-0.4,0.5l-4.6,5.6c-1.1,1.8-0.7,4.4,1.1,5.8c1.8,1.5,4.4,1.4,6-0.2
		c0.1-0.1,0.3-0.3,0.4-0.4l0,0l6.7-8.2C131.5,177.3,131.9,176.1,131.8,174.9z"/>
	<path class="st0" d="M138.1,180.6l-0.2-0.2l0,0c-0.2-0.2-0.4-0.3-0.7-0.5c0,0-0.1,0-0.1-0.1c-0.3-0.1-0.4-0.2-0.6-0.3
		c-0.1,0-0.1,0-0.2-0.1c-0.3-0.1-0.4-0.1-0.6-0.1c-0.1,0-0.2,0-0.3,0l0,0v0c-0.2,0-0.4,0-0.5,0c-0.1,0-0.1,0-0.2,0
		c-1.2,0.1-2.2,0.7-3,1.6l0,0l0,0l-4.2,5.2l-1.9,2.4c-1.6,2-1.4,4.7,0.5,6.3l0.2,0.2c0.9,0.7,2.1,1.1,3.2,1c1.2-0.1,2.2-0.7,3-1.6
		l6.2-7.6C140.3,184.9,140,182.1,138.1,180.6z"/>
	<path class="st0" d="M142.1,190.8L142.1,190.8c-0.1-0.1-0.3-0.2-0.4-0.3h0l-0.1-0.1c-0.1,0-0.2-0.1-0.3-0.1c-0.1,0-0.1,0-0.2,0
		c-0.1,0-0.2,0-0.3-0.1c-0.1,0-0.2,0-0.3,0c0,0-0.1,0-0.1,0c-0.1,0-0.3,0-0.4,0l-0.2,0c-0.1,0-0.2,0.1-0.3,0.1l-0.4-0.4l0.2,0.4
		c-0.1,0.1-0.2,0.1-0.3,0.2l0,0l0,0l0,0l-0.4-0.3l0.3,0.4c-0.2,0.1-0.3,0.3-0.4,0.4l0,0l0,0l-3.5,4.3l0,0l-0.1,0.1
		c-0.5,0.6-0.7,1.2-0.6,2c0.1,0.7,0.4,1.4,1,1.8l0.6,0.5c0.6,0.5,1.3,0.7,1.9,0.6c0.7-0.1,1.4-0.4,1.8-1l1.2-1.4l2.4-3
		c0.9-1.1,0.8-2.8-0.4-3.8L142.1,190.8z"/>
	<path class="st0" d="M109.5,171.1c0,0.1,0.1,0.1,0.2,0.2l0.1,0.1l2.5-3.1c1-1.2,2.4-1.9,3.9-2.1c1.6-0.1,3,0.3,4.2,1.3
		c0.3,0.2,0.5,0.5,0.8,0.8c0.1,0.1,0.1,0.1,0.1,0.2l0.1,0.1c0.1,0.2,0.3,0.4,0.4,0.6c0,0.1,0.1,0.2,0.1,0.3l0.1,0.1
		c0.1,0.2,0.2,0.4,0.2,0.6c0,0.1,0,0.2,0.1,0.2c1.1-1.2,2.6-1.9,4.3-2.1c1.8-0.2,3.7,0.4,5.1,1.5c1.4,1.2,2.3,2.8,2.5,4.7
		c0,0.4,0,0.8,0,1.2c0,0.1,0,0.2,0,0.3c0,0.3-0.1,0.7-0.2,1c0.1,0,0.3,0,0.4-0.1l0.1,0c0.4,0,0.8,0,1.2,0l0.1,0
		c0.4,0,0.8,0.1,1.2,0.2c0.4,0.1,0.7,0.3,1.1,0.5c0.1,0,0.2,0.1,0.3,0.1c0.4,0.2,0.7,0.4,1,0.7l0.2,0.2c2.8,2.3,3.3,6.3,1.3,9.2
		c0.2,0,0.4,0.1,0.6,0.1l0.1,0.5l0.1-0.5c0.1,0,0.1,0,0.2,0c0.2,0.1,0.5,0.2,0.7,0.3l0.3,0.1c0.3,0.2,0.6,0.4,0.9,0.6l0.6,0.5
		c2.2,1.8,2.5,5,0.7,7.1l-0.8,1c8,2.9,13.6,3.5,16.8,1.8c1.1-0.6,1.9-1.6,2.4-2.9l-13.3-6.5l-0.4,0.9l0-1.1l-0.5-0.2l1.1-2.2
		l13.8,6.8l0,0l1.4,0.7c0.2,0.1,3.2,1.7,5.8-1.2c1.2-1.4,1-3.4,0.8-4.2l-16.8-9.3l1.2-2.1l17.2,9.5c0.3,0.1,4.2,1.3,6.2-1
		c1.6-1.8,0.4-4,0-4.7l-19.2-11.7l1.2-2.1l19.4,11.9c0.1,0.1,3.5,2,6.2-1.4c2.1-2.6,0.7-4.2,0.6-4.4c-14.5-14.4-33.3-23.8-37.2-25.3
		c-0.6-0.2-0.8-0.3-0.8-0.3c-2.2-0.2-4,0.1-5.2,2.1c-2,3.3-10.1,8.6-16.1,8.9c-2.6,0.1-3.7-0.8-4.2-1.7c-1.3-2.1,0.3-4.9,0.6-5.5
		l1.6-2.6c0.1-0.2,0.2-0.4,0.4-0.5c0-0.1,0.1-0.2,0.2-0.3l1.7-2.6c0.8-1.1,1.6-2.2,2.3-3.2l1-1.3c-5.9-0.7-10.9-4-11.5-4.4
		l-44.6-19.2c-2.7,8.2-4.2,16.9-4.2,26c0,2.6,0.1,5.1,0.4,7.7c8.6,0.6,19.8,2,24.4,5.4C105.4,163.7,109.1,170.4,109.5,171.1z"/>
	<path class="st0" d="M234,117.5L182.7,136c0,0-5.7,2.8-13.3,1.6l-1.3-0.2c-6.4-1-11-1.8-16.8-1.1c-0.6,0.1-1.3,0.1-1.9,0.2
		l-0.7,0.1c-4.9,0.5-8.7,0.9-11.8,3.6c-0.4,0.4-0.9,0.8-1.4,1.4c-0.7,0.7-1.4,1.6-2.1,2.5c-0.2,0.2-0.3,0.4-0.5,0.7
		c-0.5,0.6-0.9,1.3-1.4,1.9c-0.4,0.5-0.7,1-1,1.5c-0.4,0.5-0.7,1-1,1.5c-0.3,0.4-0.6,0.9-0.8,1.2c-0.3,0.5-0.6,1-0.8,1.3
		c-0.4,0.6-0.7,1.1-0.8,1.2c-0.5,0.8-1.1,2.4-0.7,3.1c0.2,0.4,1,0.6,2.1,0.5c5.6-0.3,12.7-5.2,14.2-7.7c0.2-0.3,0.4-0.6,0.6-0.9
		c0,0,0.1-0.1,0.1-0.2l0,0c0,0,0,0,0,0l0,0c0.2-0.2,0.4-0.5,0.7-0.7l0.1-0.1c0.2-0.2,0.4-0.3,0.7-0.5l0.1-0.1
		c0.2-0.1,0.5-0.3,0.7-0.4c0.1,0,0.1,0,0.2-0.1c0.2-0.1,0.4-0.2,0.6-0.2c0,0,0.1,0,0.1,0l0,0c0.2-0.1,0.5-0.1,0.7-0.2l0.2,0v0
		c0.2,0,0.4-0.1,0.6-0.1l0.2,0.5h0l0-0.5c0.2,0,0.3,0,0.5,0l0.2,0c0.2,0,0.4,0,0.5,0l0.2,0v0l0.4,0c0.1,0,0.2,0,0.3,0.1l0,0l0,0
		l0.2,0l0,0l0.2,0.1l0,0l0.1,0l0,0l0.3,0.1l0,0l0.2,0.1l0,0l0.4,0.1l0,0l0.2,0.1l0,0.5h0l0.2-0.5l0.4,0.2l0,0l0.3,0.1l0,0l0.4,0.2
		l0,0l0.4,0.2l0,0l0.4,0.2l0,0l0.4,0.2c0.2,0.1,0.3,0.1,0.5,0.2v0l0.5,0.3l0,0l0.5,0.3l0-0.1l0.6,0.3l0,0.1l0.5,0.3l0-0.1l0.6,0.3
		l-0.1,0.1l0.5,0.3l0.1-0.1l0.6,0.3l-0.1,0.1l0.5,0.3l0.1-0.1l0.6,0.3l-0.1,0.1l0.6,0.4l0.1-0.2l0.6,0.4l-0.1,0.2l0.7,0.4l0.1-0.1
		l0.7,0.4l-0.1,0.1l0.6,0.4l0.1-0.1l0.7,0.4l-0.1,0.1l0.7,0.4l0.1-0.1l0.8,0.5l0,0.1l0.7,0.4l0,0l0.8,0.5l0.7,0.5l0,0l0.8,0.5l0,0
		l0.7,0.5l0,0l0.8,0.5l0,0l0.7,0.5l0,0l0.8,0.5c0.2,0.2,0.5,0.3,0.7,0.5l0,0l0.8,0.5l0,0l0.8,0.5l0,0l0.7,0.5l-0.1,0.5l0.3-0.4
		c0.2,0.2,0.5,0.3,0.7,0.5l0,0l0.8,0.6l0,0l0.8,0.6l0,0l0.8,0.6l0,0.1l0.8,0.6l0.1-0.1l0.8,0.6l-0.1,0.1l0.8,0.6l0.1-0.1l0.8,0.7
		l0,0.1l0.8,0.6l0,0l0.8,0.7l0,0l0.8,0.6l0.8,0.7l0,0l0.8,0.7l0,0l0.8,0.7c0.3,0.2,0.5,0.5,0.8,0.7l0,0l0.8,0.7l0,0l0.2,0.2
		c0.2,0.2,0.4,0.4,0.6,0.6l0,0c0.2,0.2,0.5,0.5,0.7,0.7l0.2,0.2c2.6-2.1,9.5-8,12-12.8c2.4-4.5,21.6-5.4,36.9-5.3
		c0.3-3.1,0.5-6.2,0.5-9.3C238.4,135,236.8,125.9,234,117.5z"/>
	<g>
		<path class="st1" d="M234,223.3l-17.2-17.2c-15.8,15.8-37.6,25.6-61.7,25.6s-45.9-9.8-61.7-25.6l-17.2,17.2
			c20.2,20.2,48.1,32.7,78.9,32.7S213.8,243.5,234,223.3z"/>
	</g>
</g>
</svg>
