<?xml version="1.0" encoding="UTF-8" standalone="no" ?>
<!DOCTYPE svg PUBLIC "-//W3C//DTD SVG 1.1//EN" "http://www.w3.org/Graphics/SVG/1.1/DTD/svg11.dtd">
<svg xmlns="http://www.w3.org/2000/svg" xmlns:xlink="http://www.w3.org/1999/xlink" version="1.1" width="284" height="100" viewBox="0 0 284 100" xml:space="preserve">
<desc>Created with Fabric.js 4.6.0</desc>
<defs>
</defs>
<g transform="matrix(1 0 0 1 35.29 46.11)" id="g16KeCaFye13sW0PmMHrl"  >
<path style="stroke: none; stroke-width: 1; stroke-dasharray: none; stroke-linecap: butt; stroke-dashoffset: 0; stroke-linejoin: miter; stroke-miterlimit: 4; fill: rgb(0,63,166); fill-rule: nonzero; opacity: 1;" vector-effect="non-scaling-stroke"  transform=" translate(-24.15, -23.97)" d="M 24.1 47.8 C 23.400000000000002 47.8 22.700000000000003 47.5 22.200000000000003 47 L 1.1 25.9 C 0.10000000000000009 24.9 0.10000000000000009 23.2 1.1 22.2 C 2.1 21.2 3.8000000000000003 21.2 4.800000000000001 22.2 L 24.1 41.5 L 41.7 24 L 40 22.4 L 26.1 36.4 C 25.6 36.9 24.900000000000002 37.199999999999996 24.200000000000003 37.199999999999996 C 23.500000000000004 37.199999999999996 22.800000000000004 36.9 22.300000000000004 36.4 L 6.300000000000004 20.4 C 5.300000000000004 19.4 5.300000000000004 17.7 6.300000000000004 16.7 L 22.3 0.9 C 23.3 -0.09999999999999998 25 -0.09999999999999998 26 0.9 L 36.7 11.6 C 37.7 12.6 37.7 14.3 36.7 15.3 C 35.7 16.3 34 16.3 33 15.3 L 24.1 6.5 L 11.9 18.6 L 24.200000000000003 30.900000000000002 L 38.1 16.900000000000002 C 38.6 16.400000000000002 39.300000000000004 16.1 40 16.1 C 40.699999999999996 16.1 41.4 16.400000000000002 41.9 16.900000000000002 L 47.199999999999996 22.200000000000003 C 48.199999999999996 23.200000000000003 48.199999999999996 24.900000000000002 47.199999999999996 25.900000000000002 L 26 47.1 C 25.5 47.5 24.9 47.8 24.1 47.8 z" stroke-linecap="round" />
</g>
<g transform="matrix(1 0 0 1 73.94 46.54)" id="KtiLDEVIrgwXC5_xlRKQx"  >
<path style="stroke: none; stroke-width: 1; stroke-dasharray: none; stroke-linecap: butt; stroke-dashoffset: 0; stroke-linejoin: miter; stroke-miterlimit: 4; fill: rgb(0,63,166); fill-rule: nonzero; opacity: 1;" vector-effect="non-scaling-stroke"  transform=" translate(-62.8, -24.4)" d="M 65.2 34.4 L 60.1 34.4 L 52.9 14.399999999999999 L 56.8 14.399999999999999 L 62.8 31.7 L 68.8 14.399999999999999 L 72.7 14.399999999999999 L 65.2 34.4 z" stroke-linecap="round" />
</g>
<g transform="matrix(1 0 0 1 89.39 42.84)" id="kKGL-LtOYZqfmanYWf28D"  >
<path style="stroke: none; stroke-width: 1; stroke-dasharray: none; stroke-linecap: butt; stroke-dashoffset: 0; stroke-linejoin: miter; stroke-miterlimit: 4; fill: rgb(0,63,166); fill-rule: nonzero; opacity: 1;" vector-effect="non-scaling-stroke"  transform=" translate(-78.25, -20.7)" d="M 76 7 L 80.5 7 L 80.5 11.2 L 76 11.2 L 76 7 z M 76.6 14.4 L 80.5 14.4 L 80.5 34.4 L 76.6 34.4 L 76.6 14.4 z" stroke-linecap="round" />
</g>
<g transform="matrix(1 0 0 1 103.54 46.54)" id="BHMY0szVF4hR1KfA6Iff_"  >
<path style="stroke: none; stroke-width: 1; stroke-dasharray: none; stroke-linecap: butt; stroke-dashoffset: 0; stroke-linejoin: miter; stroke-miterlimit: 4; fill: rgb(0,63,166); fill-rule: nonzero; opacity: 1;" vector-effect="non-scaling-stroke"  transform=" translate(-92.4, -24.4)" d="M 90.6 34.4 L 86.69999999999999 34.4 L 86.69999999999999 14.399999999999999 L 90.6 14.399999999999999 L 90.6 16.799999999999997 C 91.5 14.699999999999998 93.6 14.399999999999997 96.6 14.399999999999997 L 98.1 14.399999999999997 L 98.1 17.4 L 92.39999999999999 17.4 C 91.19999999999999 17.4 90.89999999999999 18 90.89999999999999 19.5 L 90.89999999999999 34.4 L 90.6 34.4 z" stroke-linecap="round" />
</g>
<g transform="matrix(1 0 0 1 117.99 44.14)" id="6aXEYAsIi_1LS6T12boTG"  >
<path style="stroke: none; stroke-width: 1; stroke-dasharray: none; stroke-linecap: butt; stroke-dashoffset: 0; stroke-linejoin: miter; stroke-miterlimit: 4; fill: rgb(0,63,166); fill-rule: nonzero; opacity: 1;" vector-effect="non-scaling-stroke"  transform=" translate(-106.85, -22)" d="M 107 17.4 L 107 29.299999999999997 C 107 30.799999999999997 107.3 31.4 108.8 31.4 L 113 31.4 L 113 34.4 L 109.7 34.4 C 105.2 34.4 103.4 32.3 103.4 29 L 103.4 17.4 L 100.4 17.4 L 100.4 14.399999999999999 L 103.4 14.399999999999999 L 104.60000000000001 9.599999999999998 L 107.30000000000001 9.599999999999998 L 107.30000000000001 14.399999999999999 L 113.30000000000001 14.399999999999999 L 113.30000000000001 17.4 C 113.3 17.4 107 17.4 107 17.4 z" stroke-linecap="round" />
</g>
<g transform="matrix(1 0 0 1 136.19 46.54)" id="QnpDMuU2cmNnOS0o4nZDi"  >
<path style="stroke: none; stroke-width: 1; stroke-dasharray: none; stroke-linecap: butt; stroke-dashoffset: 0; stroke-linejoin: miter; stroke-miterlimit: 4; fill: rgb(0,63,166); fill-rule: nonzero; opacity: 1;" vector-effect="non-scaling-stroke"  transform=" translate(-125.05, -24.4)" d="M 116.5 29.1 L 116.5 14.4 L 120.4 14.4 L 120.4 29.6 C 120.4 31.1 120.7 31.700000000000003 121.9 31.700000000000003 L 128.20000000000002 31.700000000000003 C 129.4 31.700000000000003 129.70000000000002 31.1 129.70000000000002 29.6 L 129.70000000000002 14.4 L 133.60000000000002 14.4 L 133.60000000000002 34.4 L 129.70000000000002 34.4 L 129.70000000000002 32 C 128.8 34.1 126.70000000000002 34.4 123.70000000000002 34.4 L 122.50000000000001 34.4 C 118.9 34.4 116.5 32.6 116.5 29.1 z" stroke-linecap="round" />
</g>
<g transform="matrix(1 0 0 1 158.59 46.54)" id="X7KMDBpwtxObwXB7PXG78"  >
<path style="stroke: none; stroke-width: 1; stroke-dasharray: none; stroke-linecap: butt; stroke-dashoffset: 0; stroke-linejoin: miter; stroke-miterlimit: 4; fill: rgb(0,63,166); fill-rule: nonzero; opacity: 1;" vector-effect="non-scaling-stroke"  transform=" translate(-147.45, -24.4)" d="M 138.9 27.9 C 138.9 24.299999999999997 141.3 22.5 144.9 22.5 L 152.1 22.5 L 152.1 19.2 C 152.1 18.3 151.79999999999998 17.4 150.9 17.4 L 141 17.4 L 141 14.399999999999999 L 149.4 14.399999999999999 C 153.3 14.399999999999999 156 16.2 156 19.799999999999997 L 156 34.4 L 152.1 34.4 L 152.1 32 C 151.2 34.1 149.1 34.4 146.1 34.4 L 144.9 34.4 C 141 34.4 138.9 32.6 138.9 29 C 138.9 29.1 138.9 27.9 138.9 27.9 z M 144.3 31.8 L 150.60000000000002 31.8 C 151.8 31.8 152.10000000000002 31.5 152.10000000000002 30.6 L 152.10000000000002 25.5 L 144.3 25.5 C 143.10000000000002 25.5 142.8 26.1 142.8 27.6 L 142.8 29.700000000000003 C 142.8 31.2 143.1 31.8 144.3 31.8 z" stroke-linecap="round" />
</g>
<g transform="matrix(1 0 0 1 174.99 42.84)" id="KYSfHi1Mz5-yyjYLHJdbH"  >
<path style="stroke: none; stroke-width: 1; stroke-dasharray: none; stroke-linecap: butt; stroke-dashoffset: 0; stroke-linejoin: miter; stroke-miterlimit: 4; fill: rgb(0,63,166); fill-rule: nonzero; opacity: 1;" vector-effect="non-scaling-stroke"  transform=" translate(-163.85, -20.7)" d="M 161.9 7 L 165.8 7 L 165.8 34.4 L 161.9 34.4 L 161.9 7 z" stroke-linecap="round" />
</g>
<g transform="matrix(1 0 0 1 189.64 46.94)" id="a-87TFgKUSwv_1bGE-8xR"  >
<path style="stroke: none; stroke-width: 1; stroke-dasharray: none; stroke-linecap: butt; stroke-dashoffset: 0; stroke-linejoin: miter; stroke-miterlimit: 4; fill: rgb(0,63,166); fill-rule: nonzero; opacity: 1;" vector-effect="non-scaling-stroke"  transform=" translate(-178.5, -24.8)" d="M 176.5 31.8 L 186 31.8 L 186 34.8 L 177 34.8 C 173.1 34.8 171 33 171 29.4 L 171 20.2 C 171 16.599999999999998 173.4 14.799999999999999 177 14.799999999999999 L 186 14.799999999999999 L 186 17.799999999999997 L 176.5 17.799999999999997 C 175.3 17.799999999999997 174.7 18.4 174.7 19.9 L 174.7 30 C 174.7 31.2 175.3 31.8 176.5 31.8 z" stroke-linecap="round" />
</g>
<g transform="matrix(1 0 0 1 209.79 46.64)" id="B8JoJRPKoJ-n3buhK8G4c"  >
<path style="stroke: none; stroke-width: 1; stroke-dasharray: none; stroke-linecap: butt; stroke-dashoffset: 0; stroke-linejoin: miter; stroke-miterlimit: 4; fill: rgb(0,63,166); fill-rule: nonzero; opacity: 1;" vector-effect="non-scaling-stroke"  transform=" translate(-198.65, -24.5)" d="M 207.5 29.1 C 207.5 32.7 205.1 34.5 201.5 34.5 L 195.8 34.5 C 191.9 34.5 189.8 32.7 189.8 29.1 L 189.8 19.900000000000002 C 189.8 16.3 192.20000000000002 14.500000000000002 195.8 14.500000000000002 L 201.5 14.500000000000002 C 205.4 14.500000000000002 207.5 16.3 207.5 19.900000000000002 L 207.5 29.1 z M 195.3 31.8 L 201.9 31.8 C 203.1 31.8 203.70000000000002 31.2 203.70000000000002 29.7 L 203.70000000000002 19.5 C 203.70000000000002 18 203.4 17.4 201.9 17.4 L 195.3 17.4 C 194.10000000000002 17.4 193.5 18 193.5 19.5 L 193.5 29.6 C 193.5 31.2 194.1 31.8 195.3 31.8 z" stroke-linecap="round" />
</g>
<g transform="matrix(1 0 0 1 231.99 46.64)" id="5Xz3SMb4JnF_ccJacDQ_W"  >
<path style="stroke: none; stroke-width: 1; stroke-dasharray: none; stroke-linecap: butt; stroke-dashoffset: 0; stroke-linejoin: miter; stroke-miterlimit: 4; fill: rgb(0,63,166); fill-rule: nonzero; opacity: 1;" vector-effect="non-scaling-stroke"  transform=" translate(-220.85, -24.5)" d="M 229.6 29.1 C 229.6 32.7 227.2 34.5 223.6 34.5 L 218 34.5 C 214.1 34.5 212 32.7 212 29.1 L 212 19.900000000000002 C 212 16.3 214.4 14.500000000000002 218 14.500000000000002 L 223.7 14.500000000000002 C 227.6 14.500000000000002 229.7 16.3 229.7 19.900000000000002 L 229.7 29.1 z M 217.7 31.8 L 224.29999999999998 31.8 C 225.49999999999997 31.8 226.1 31.2 226.1 29.7 L 226.1 19.5 C 226.1 18 225.79999999999998 17.4 224.29999999999998 17.4 L 217.7 17.4 C 216.5 17.4 215.89999999999998 18 215.89999999999998 19.5 L 215.89999999999998 29.6 C 215.9 31.2 216.2 31.8 217.7 31.8 z" stroke-linecap="round" />
</g>
<g transform="matrix(1 0 0 1 254.69 49.84)" id="b1qwgG5RxZYcg-1M_qg-R"  >
<path style="stroke: none; stroke-width: 1; stroke-dasharray: none; stroke-linecap: butt; stroke-dashoffset: 0; stroke-linejoin: miter; stroke-miterlimit: 4; fill: rgb(0,63,166); fill-rule: nonzero; opacity: 1;" vector-effect="non-scaling-stroke"  transform=" translate(-243.55, -27.7)" d="M 235 14.4 L 238.9 14.4 L 238.9 16.8 C 239.8 14.700000000000001 241.9 14.4 244.9 14.4 L 246.1 14.4 C 250 14.4 252.1 16.2 252.1 19.8 L 252.1 29 C 252.1 32.6 249.7 34.4 246.1 34.4 L 244.9 34.4 C 241.9 34.4 239.8 34.4 238.9 32 L 238.9 41 L 235 41 C 235 41 235 14.4 235 14.4 z M 238.9 30.3 C 238.9 31.2 239.5 31.5 240.4 31.5 L 246.70000000000002 31.5 C 247.9 31.5 248.50000000000003 30.9 248.50000000000003 29.4 L 248.50000000000003 19.2 C 248.50000000000003 17.7 248.20000000000002 17.099999999999998 247.00000000000003 17.099999999999998 L 240.70000000000002 17.099999999999998 C 239.50000000000003 17.099999999999998 239.20000000000002 17.7 239.20000000000002 19.2 L 239.20000000000002 30.2 L 238.9 30.2 z" stroke-linecap="round" />
</g>
<g transform="matrix(1 0 0 1 158.5 73.5)" style="" id="I0Qv7FlYoYHty-aw4Tm3P"  >
		<text xml:space="preserve" font-family="BerlinRounded-Bold" font-size="13" font-style="normal" font-weight="normal" letter-spacing="3.857815018241591" line-height="1" style="stroke: none; stroke-width: 0.19; stroke-dasharray: none; stroke-linecap: butt; stroke-dashoffset: 0; stroke-linejoin: miter; stroke-miterlimit: 4; fill: rgb(0,63,166); fill-rule: nonzero; opacity: 1; white-space: pre;" ><tspan x="-99.5" y="3.93" >C</tspan><tspan x="-86.97" y="3.93" >I</tspan><tspan x="-78.78" y="3.93" >U</tspan><tspan x="-65.54" y="3.93" >D</tspan><tspan x="-52.29" y="3.93" >A</tspan><tspan x="-39.05" y="3.93" >D</tspan><tspan x="-25.8" y="3.93" style="white-space: pre; "> </tspan><tspan x="-18.69" y="3.93" >D</tspan><tspan x="-5.45" y="3.93" >E</tspan><tspan x="6.35" y="3.93" style="white-space: pre; "> </tspan><tspan x="13.46" y="3.93" >Z</tspan><tspan x="25.26" y="3.93" >A</tspan><tspan x="38.5" y="3.93" >M</tspan><tspan x="53.92" y="3.93" >O</tspan><tspan x="67.17" y="3.93" >R</tspan><tspan x="79.7" y="3.93" >A</tspan></text>
</g>
</svg>