<?xml version="1.0" encoding="utf-8"?>
<!-- Generator: Adobe Illustrator 24.2.0, SVG Export Plug-In . SVG Version: 6.00 Build 0)  -->
<svg version="1.1" id="Capa_2_1_" xmlns="http://www.w3.org/2000/svg" xmlns:xlink="http://www.w3.org/1999/xlink" x="0px" y="0px"
	 viewBox="0 0 1051 289" style="enable-background:new 0 0 1051 289;" xml:space="preserve">
<style type="text/css">
	.st0{fill:#96272D;}
	.st1{fill:#1D1D1B;}
	.st2{fill:#96262C;}
	.st3{fill:#F2C400;}
</style>
<g>
	<g>
		<path class="st0" d="M380,141.3l-20.5,0l0-13.3c0-3.9-0.2-6.3-0.7-7.3c-0.4-1-1.4-1.4-2.9-1.4c-1.7,0-2.8,0.6-3.2,1.8
			c-0.5,1.2-0.7,3.7-0.7,7.6l0.1,35.6c0,3.7,0.2,6.2,0.7,7.3c0.5,1.1,1.5,1.7,3.1,1.7c1.5,0,2.5-0.6,3-1.7c0.5-1.1,0.7-3.8,0.7-8
			l0-9.6l20.5,0l0,3c0,7.9-0.6,13.6-1.7,16.9c-1.1,3.3-3.7,6.2-7.6,8.7c-3.9,2.5-8.8,3.8-14.6,3.8c-6,0-11-1-14.9-3.1
			c-3.9-2.1-6.5-5-7.8-8.8c-1.3-3.7-1.9-9.4-1.9-16.9l0-22.4c0-5.5,0.2-9.7,0.6-12.4c0.4-2.8,1.5-5.4,3.5-8c1.9-2.6,4.6-4.6,8-6.1
			c3.4-1.5,7.4-2.2,11.8-2.2c6,0,11,1.1,15,3.4c3.9,2.3,6.5,5.1,7.8,8.5c1.2,3.4,1.9,8.7,1.9,15.8L380,141.3z"/>
		<path class="st0" d="M387.3,107.9l14.5,0c9.7,0,16.2,0.3,19.7,1.1c3.4,0.7,6.2,2.6,8.4,5.6c2.2,3,3.3,7.7,3.3,14.3
			c0,6-0.7,10-2.3,12c-1.5,2.1-4.5,3.3-9,3.7c4.1,1,6.8,2.3,8.2,3.9c1.4,1.6,2.3,3.1,2.6,4.5c0.3,1.4,0.5,5.2,0.5,11.3l0,20.2
			l-19.1,0l0-25.5c0-4.1-0.3-6.6-1-7.6c-0.7-1-2.4-1.5-5.2-1.5l0.1,34.6l-20.5,0L387.3,107.9z M407.9,121l0,17.1
			c2.3,0,3.9-0.3,4.8-0.9c0.9-0.6,1.4-2.6,1.4-6l0-4.2c0-2.4-0.5-4-1.4-4.8C411.9,121.4,410.2,121,407.9,121z"/>
		<path class="st0" d="M441.1,107.8l34.2-0.1l0,15.4l-13.7,0l0,14.5l12.8,0l0,14.6l-12.8,0l0,16.9l15.1,0l0,15.4l-35.6,0.1
			L441.1,107.8z"/>
		<path class="st0" d="M482.6,107.7l15.4,0c9.9,0,16.6,0.4,20.1,1.3c3.5,0.9,6.2,2.3,8,4.3c1.8,2,3,4.3,3.4,6.7
			c0.5,2.5,0.7,7.4,0.7,14.6l0.1,26.9c0,6.9-0.3,11.5-1,13.8c-0.7,2.3-1.8,4.1-3.5,5.5c-1.7,1.3-3.7,2.2-6.1,2.8
			c-2.4,0.5-6.1,0.8-11,0.8l-25.9,0L482.6,107.7z M503.1,120.8l0.1,50.5c3,0,4.8-0.6,5.5-1.7c0.7-1.2,1-4.3,1-9.4l-0.1-29.8
			c0-3.5-0.1-5.7-0.4-6.7c-0.2-1-0.8-1.7-1.6-2.2C506.9,121,505.4,120.8,503.1,120.8z"/>
		<path class="st0" d="M558.3,107.6l0.1,76.7l-20.5,0l-0.1-76.7L558.3,107.6z"/>
		<path class="st0" d="M602,107.5l11.9,76.7l-21,0l-1.1-13.8l-7.3,0l-1.2,13.8l-21.2,0l10.3-76.7L602,107.5z M591.2,156.8
			c-1.1-8.7-2.1-19.4-3.2-32.2c-2.1,14.7-3.4,25.4-3.9,32.2L591.2,156.8z"/>
		<path class="st0" d="M680.6,107.3l0.1,76.7l-17.9,0l-0.1-51.8l-7,51.8l-12.7,0l-7.6-50.6l0.1,50.6l-17.9,0l-0.1-76.7l26.6-0.1
			c0.8,4.6,1.6,10,2.5,16.3l2.9,19.5l4.7-35.8L680.6,107.3z"/>
		<path class="st0" d="M709.3,107.3l0.1,76.7l-20.5,0l-0.1-76.7L709.3,107.3z"/>
		<path class="st0" d="M764.7,135.4l-20.5,0l0-7c0-4.4-0.2-7.1-0.6-8.2c-0.4-1.1-1.3-1.7-2.8-1.7c-1.3,0-2.1,0.5-2.6,1.4
			c-0.5,0.9-0.7,3.4-0.7,7.3l0.1,36.8c0,3.4,0.2,5.7,0.7,6.8c0.5,1.1,1.4,1.6,2.7,1.6c1.5,0,2.5-0.6,3-1.9c0.5-1.2,0.8-3.6,0.8-7.2
			l0-9.1l-4.1,0l0-11.7l24,0l0.1,41.2l-12.9,0l-1.9-5.5c-1.4,2.4-3.2,4.2-5.3,5.3c-2.1,1.2-4.6,1.8-7.5,1.8c-3.4,0-6.7-0.8-9.7-2.4
			c-3-1.6-5.3-3.6-6.9-6c-1.6-2.4-2.5-4.9-2.9-7.6c-0.4-2.6-0.6-6.6-0.6-11.9l0-22.8c0-7.3,0.4-12.7,1.2-16c0.8-3.3,3.1-6.4,7-9.1
			c3.8-2.8,8.8-4.2,14.9-4.2c6,0,11,1.2,15,3.6c4,2.4,6.6,5.2,7.8,8.5c1.2,3.3,1.8,8.1,1.8,14.4L764.7,135.4z"/>
		<path class="st0" d="M819.6,152c0,7.7-0.2,13.2-0.5,16.4c-0.4,3.2-1.5,6.1-3.5,8.8c-2,2.7-4.6,4.7-8,6.1s-7.2,2.1-11.7,2.2
			c-4.2,0-8-0.7-11.4-2c-3.4-1.3-6.1-3.3-8.1-6c-2.1-2.7-3.3-5.6-3.7-8.8c-0.4-3.2-0.6-8.7-0.6-16.6l0-13.1c0-7.7,0.2-13.2,0.5-16.4
			c0.4-3.2,1.5-6.1,3.5-8.8c2-2.7,4.6-4.7,8-6.1c3.3-1.4,7.2-2.1,11.7-2.2c4.2,0,8,0.7,11.4,2c3.4,1.3,6.1,3.3,8.1,6
			c2.1,2.7,3.3,5.6,3.7,8.8c0.4,3.2,0.6,8.7,0.6,16.6L819.6,152z M799,126.8c0-3.6-0.2-5.9-0.6-6.8c-0.4-1-1.2-1.5-2.5-1.5
			c-1.1,0-1.9,0.4-2.5,1.2c-0.6,0.8-0.8,3.2-0.8,7.1l0.1,35.8c0,4.5,0.2,7.2,0.6,8.2c0.4,1,1.2,1.6,2.6,1.6c1.4,0,2.3-0.6,2.7-1.8
			c0.4-1.2,0.6-4.1,0.6-8.6L799,126.8z"/>
		<path class="st0" d="M865.3,107l0.1,61.4l12.5,0l0,15.4l-33,0.1l-0.1-76.7L865.3,107z"/>
		<path class="st0" d="M902.9,112.4l0,9.9l5.3,0l0,10l-5.3,0l0.1,33.6c0,4.1,0.2,6.4,0.7,6.9c0.4,0.5,2.3,0.7,5.5,0.7l0,10.1l-7.9,0
			c-4.5,0-7.7-0.2-9.6-0.5c-1.9-0.4-3.6-1.2-5.1-2.5c-1.5-1.3-2.4-2.8-2.7-4.5c-0.4-1.7-0.5-5.7-0.6-11.9l-0.1-31.9l-4.2,0l0-10
			l4.2,0l0-9.9L902.9,112.4z"/>
		<path class="st0" d="M957.4,106.8l0.1,76.7l-19.7,0l0-4.6c-1.9,1.9-3.9,3.3-5.9,4.3c-2.1,1-4.3,1.4-6.5,1.4
			c-3.1,0-5.7-0.8-7.9-2.3c-2.2-1.6-3.7-3.4-4.3-5.4c-0.6-2.1-1-5.4-1-10l-0.1-29.4c0-4.8,0.3-8.3,0.9-10.3c0.6-2,2.1-3.8,4.4-5.3
			c2.3-1.5,5-2.3,8.1-2.3c2.4,0,4.7,0.4,6.7,1.3c2,0.9,3.9,2.1,5.5,3.8l0-17.8L957.4,106.8z M937.7,136.5c0-2.3-0.2-3.9-0.6-4.6
			c-0.4-0.8-1.2-1.2-2.4-1.2c-1.2,0-2,0.4-2.4,1.1c-0.4,0.7-0.6,2.3-0.6,4.8l0.1,30.8c0,2.6,0.2,4.2,0.6,5c0.4,0.8,1.1,1.2,2.2,1.2
			c1.3,0,2.1-0.5,2.5-1.4c0.4-0.9,0.6-3.1,0.6-6.6L937.7,136.5z"/>
		<path class="st0" d="M982.1,145l-18.5,0l0-4.2c0-4.9,0.6-8.6,1.7-11.3c1.1-2.6,3.5-5,6.9-7c3.5-2,8-3,13.5-3.1
			c6.7,0,11.7,1.1,15.1,3.4c3.4,2.3,5.4,5.1,6.1,8.4c0.7,3.3,1,10.2,1.1,20.6l0.1,31.6l-19.2,0l0-5.6c-1.2,2.2-2.7,3.9-4.6,5.1
			c-1.9,1.1-4.2,1.7-6.8,1.7c-3.4,0-6.6-0.9-9.5-2.8c-2.9-1.9-4.3-6-4.3-12.3l0-5.2c0-4.7,0.7-7.9,2.3-9.6c1.5-1.7,5.3-3.7,11.3-6
			c6.5-2.5,9.9-4.1,10.4-5c0.5-0.9,0.7-2.6,0.7-5.2c0-3.3-0.3-5.4-0.8-6.4c-0.5-1-1.3-1.5-2.5-1.5c-1.3,0-2.2,0.4-2.5,1.3
			c-0.3,0.8-0.5,3-0.5,6.5L982.1,145z M988.4,153.6c-3.1,2.2-5,4.1-5.5,5.6c-0.5,1.5-0.7,3.7-0.7,6.5c0,3.3,0.2,5.4,0.7,6.3
			c0.4,0.9,1.3,1.4,2.6,1.4c1.2,0,2-0.4,2.4-1.1c0.4-0.7,0.6-2.7,0.6-5.9L988.4,153.6z"/>
		<path class="st0" d="M1028,167.8l0,15.6l-14.9,0l0-15.6L1028,167.8z"/>
	</g>
	<path class="st1" d="M341,68.7c0-1.8-0.2-3.1-0.6-3.9c-0.4-0.8-1.2-1.2-2.3-1.2c-0.6,0-1.1,0.2-1.5,0.5c-0.4,0.3-0.7,0.9-0.9,1.6
		c-0.2,0.8-0.4,1.7-0.5,3c-0.1,1.2-0.1,2.7-0.1,4.5c0,1.9,0.1,3.4,0.2,4.6c0.1,1.2,0.3,2.1,0.6,2.7c0.3,0.6,0.6,1.1,1,1.3
		c0.4,0.2,0.8,0.3,1.4,0.3c0.4,0,0.8-0.1,1.2-0.2c0.4-0.2,0.7-0.5,1-0.9c0.3-0.5,0.5-1.1,0.6-1.9c0.2-0.8,0.2-1.9,0.2-3.3l4.8,0
		c0,1.3-0.1,2.6-0.3,3.8c-0.2,1.2-0.6,2.3-1.1,3.2c-0.5,0.9-1.3,1.6-2.3,2.2c-1,0.5-2.3,0.8-3.9,0.8c-1.8,0-3.2-0.3-4.3-0.9
		c-1.1-0.6-1.9-1.5-2.5-2.7c-0.6-1.1-0.9-2.5-1.1-4.1c-0.2-1.6-0.3-3.3-0.3-5.2c0-1.9,0.1-3.6,0.2-5.2c0.2-1.6,0.5-3,1.1-4.1
		c0.6-1.1,1.4-2,2.5-2.7c1.1-0.6,2.5-1,4.3-1c1.7,0,3.1,0.3,4.1,0.9c1,0.6,1.7,1.3,2.2,2.2c0.5,0.9,0.8,1.9,0.9,2.9
		c0.1,1,0.2,2,0.2,2.9L341,68.7z"/>
	<path class="st1" d="M354.9,72.7c0-1.9,0.1-3.6,0.2-5.2c0.2-1.6,0.5-3,1.1-4.1c0.6-1.1,1.4-2,2.5-2.7c1.1-0.6,2.5-1,4.3-1
		c1.8,0,3.2,0.3,4.3,0.9c1.1,0.6,1.9,1.5,2.5,2.7c0.6,1.1,0.9,2.5,1.1,4.1c0.2,1.6,0.3,3.3,0.3,5.2c0,1.9-0.1,3.6-0.2,5.2
		c-0.2,1.6-0.5,3-1.1,4.1c-0.6,1.1-1.4,2-2.5,2.7c-1.1,0.6-2.5,1-4.3,1c-1.8,0-3.2-0.3-4.3-0.9c-1.1-0.6-1.9-1.5-2.5-2.7
		c-0.6-1.1-0.9-2.5-1.1-4.1C355,76.4,354.9,74.6,354.9,72.7z M359.7,72.7c0,1.7,0,3.1,0.1,4.3c0.1,1.2,0.2,2.1,0.5,2.9
		c0.2,0.7,0.6,1.3,1,1.6c0.4,0.3,1,0.5,1.7,0.5c0.7,0,1.3-0.2,1.7-0.5c0.4-0.3,0.8-0.9,1-1.6c0.2-0.7,0.4-1.7,0.5-2.9
		c0.1-1.2,0.1-2.6,0.1-4.3c0-1.7,0-3.1-0.1-4.2c-0.1-1.2-0.2-2.1-0.5-2.9c-0.2-0.7-0.6-1.3-1-1.6c-0.4-0.3-1-0.5-1.7-0.5
		c-0.7,0-1.3,0.2-1.7,0.5c-0.4,0.3-0.8,0.9-1,1.6c-0.2,0.7-0.4,1.7-0.5,2.9C359.8,69.7,359.7,71.1,359.7,72.7z"/>
	<path class="st1" d="M380.2,72.7c0-1.9,0.1-3.6,0.2-5.2c0.2-1.6,0.5-3,1.1-4.1c0.6-1.1,1.4-2,2.5-2.7c1.1-0.6,2.5-1,4.3-1
		c1.8,0,3.2,0.3,4.3,0.9c1.1,0.6,1.9,1.5,2.5,2.7c0.6,1.1,0.9,2.5,1.1,4.1c0.2,1.6,0.3,3.3,0.3,5.2c0,1.9-0.1,3.6-0.2,5.2
		c-0.2,1.6-0.5,3-1.1,4.1c-0.6,1.1-1.4,2-2.5,2.7c-1.1,0.6-2.5,1-4.3,1c-1.8,0-3.2-0.3-4.3-0.9c-1.1-0.6-1.9-1.5-2.5-2.7
		c-0.6-1.1-0.9-2.5-1.1-4.1C380.3,76.3,380.2,74.6,380.2,72.7z M385,72.7c0,1.7,0,3.1,0.1,4.3c0.1,1.2,0.2,2.1,0.5,2.9
		c0.2,0.7,0.6,1.3,1,1.6c0.4,0.3,1,0.5,1.7,0.5c0.7,0,1.3-0.2,1.7-0.5c0.4-0.3,0.8-0.9,1-1.6c0.2-0.7,0.4-1.7,0.5-2.9
		c0.1-1.2,0.1-2.6,0.1-4.3c0-1.7,0-3.1-0.1-4.2c-0.1-1.2-0.2-2.1-0.5-2.9c-0.2-0.7-0.6-1.3-1-1.6c-0.4-0.3-1-0.5-1.7-0.5
		c-0.7,0-1.3,0.2-1.7,0.5c-0.4,0.3-0.8,0.9-1,1.6c-0.2,0.7-0.4,1.7-0.5,2.9C385.1,69.6,385,71,385,72.7z"/>
	<path class="st1" d="M406,60.2l8.4,0c1.2,0,2.3,0.2,3.1,0.6c0.8,0.4,1.5,1,2,1.7c0.5,0.7,0.9,1.5,1.1,2.4c0.2,0.9,0.3,1.8,0.3,2.7
		c0,1.3-0.2,2.4-0.5,3.4c-0.4,0.9-0.9,1.7-1.5,2.3c-0.7,0.6-1.5,1.1-2.4,1.4c-0.9,0.3-2,0.5-3.1,0.5l-2.6,0l0,9.9l-4.8,0L406,60.2z
		 M410.8,71.5l2.1,0c1,0,1.7-0.3,2.3-0.9c0.6-0.6,0.9-1.5,0.9-2.8c0-1.3-0.3-2.2-0.8-2.8c-0.5-0.6-1.4-1-2.6-1l-2,0L410.8,71.5z"/>
	<path class="st1" d="M443.4,60.2l0,4.1l-8.5,0l0,5.8l8,0l0,4.1l-8,0l0,6.7l8.9,0l0,4.1l-13.7,0l0-24.8L443.4,60.2z"/>
	<path class="st1" d="M452.9,60.1l8.9,0c2,0,3.6,0.5,4.7,1.6c1.1,1.1,1.7,2.7,1.7,4.8c0,1.7-0.3,3-1,4.1c-0.6,1.1-1.6,1.7-3,2l0,0.1
		c0.8,0.1,1.5,0.3,2,0.6c0.5,0.3,0.9,0.8,1.1,1.4c0.3,0.6,0.5,1.3,0.6,2.2c0.1,0.9,0.2,2,0.2,3.3c0,1.3,0.1,2.3,0.2,3
		c0.1,0.7,0.4,1.2,0.9,1.4l0,0.2l-5.3,0c-0.3-0.3-0.4-0.7-0.5-1.2c-0.1-0.5-0.1-0.9-0.1-1.4l-0.1-4.8c0-1-0.3-1.7-0.7-2.3
		c-0.4-0.6-1.1-0.8-2.1-0.8l-2.5,0l0,10.5l-4.8,0L452.9,60.1z M457.7,71l2,0c1.2,0,2.1-0.3,2.7-0.9c0.6-0.6,0.9-1.5,0.9-2.9
		c0-2.3-1.1-3.4-3.4-3.4l-2.3,0L457.7,71z"/>
	<path class="st1" d="M482.8,60.1l6,0l6.4,24.8l-5,0l-1.1-5.3l-6.4,0l-1.1,5.3l-5,0L482.8,60.1z M483.5,75.6l4.7,0l-2.3-11.2l-0.1,0
		L483.5,75.6z"/>
	<path class="st1" d="M515.6,60l0,4.1l-5.2,0l0,20.7l-4.8,0l0-20.7l-5.2,0l0-4.1L515.6,60z"/>
	<path class="st1" d="M524.7,84.8l0-24.8l4.8,0l0,24.8L524.7,84.8z"/>
	<path class="st1" d="M543.3,60l3.4,18.4l0.1,0l3.5-18.4l5,0l-5.4,24.9l-6.2,0L538.1,60L543.3,60z"/>
	<path class="st1" d="M567.2,59.9l6,0l6.4,24.8l-5,0l-1.1-5.3l-6.4,0l-1.1,5.3l-5,0L567.2,59.9z M567.9,75.4l4.7,0l-2.3-11.2l-0.1,0
		L567.9,75.4z"/>
	<path class="st1" d="M602.8,59.9l7.9,0c1.7,0,3,0.3,4.1,0.8c1,0.6,1.8,1.4,2.4,2.4c0.6,1.1,1,2.3,1.2,3.8c0.2,1.5,0.3,3.1,0.3,5
		c0,2.2-0.1,4.1-0.4,5.7c-0.3,1.6-0.7,2.9-1.3,4c-0.6,1-1.5,1.8-2.5,2.3c-1,0.5-2.4,0.8-4,0.8l-7.6,0L602.8,59.9z M607.7,81l2.1,0
		c0.8,0,1.5-0.2,2-0.5c0.5-0.3,0.9-0.8,1.2-1.5c0.3-0.7,0.5-1.6,0.6-2.7c0.1-1.1,0.1-2.6,0.1-4.2c0-1.4-0.1-2.6-0.1-3.7
		c-0.1-1.1-0.3-1.9-0.6-2.7c-0.3-0.7-0.7-1.3-1.2-1.6c-0.5-0.4-1.3-0.5-2.2-0.5l-2,0L607.7,81z"/>
	<path class="st1" d="M641.8,59.8l0,4.1l-8.5,0l0,5.8l8,0l0,4.1l-8,0l0,6.7l8.9,0l0,4.1l-13.7,0l0-24.8L641.8,59.8z"/>
	<path class="st1" d="M670.6,59.7l6,0l6.4,24.8l-5,0l-1.1-5.3l-6.4,0l-1.1,5.3l-5,0L670.6,59.7z M671.3,75.2l4.7,0L673.7,64l-0.1,0
		L671.3,75.2z"/>
	<path class="st1" d="M691.3,59.7l4.8,0l0,9.5l5.6,0l0-9.5l4.8,0l0,24.8l-4.8,0l0-11l-5.6,0l0,11l-4.8,0L691.3,59.7z"/>
	<path class="st1" d="M716.1,72.1c0-1.9,0.1-3.6,0.2-5.2c0.2-1.6,0.5-3,1.1-4.1c0.6-1.1,1.4-2,2.5-2.7c1.1-0.6,2.5-1,4.3-1
		c1.8,0,3.2,0.3,4.3,0.9c1.1,0.6,1.9,1.5,2.5,2.7c0.6,1.1,0.9,2.5,1.1,4.1c0.2,1.6,0.3,3.3,0.3,5.2c0,1.9-0.1,3.6-0.2,5.2
		c-0.2,1.6-0.5,3-1.1,4.1c-0.6,1.1-1.4,2-2.5,2.7c-1.1,0.6-2.5,1-4.3,1c-1.8,0-3.2-0.3-4.3-0.9c-1.1-0.6-1.9-1.5-2.5-2.7
		c-0.6-1.1-0.9-2.5-1.1-4.1C716.2,75.7,716.1,73.9,716.1,72.1z M720.9,72c0,1.7,0,3.1,0.1,4.3c0.1,1.2,0.2,2.1,0.5,2.9
		c0.2,0.7,0.6,1.3,1,1.6c0.4,0.3,1,0.5,1.7,0.5c0.7,0,1.3-0.2,1.7-0.5c0.4-0.3,0.8-0.9,1-1.6c0.2-0.7,0.4-1.7,0.5-2.9
		c0.1-1.2,0.1-2.6,0.1-4.3c0-1.7,0-3.1-0.1-4.2c-0.1-1.2-0.2-2.1-0.5-2.9c-0.2-0.7-0.6-1.3-1-1.6c-0.4-0.3-1-0.5-1.7-0.5
		c-0.7,0-1.3,0.2-1.7,0.5c-0.4,0.3-0.8,0.9-1,1.6c-0.2,0.7-0.4,1.7-0.5,2.9C721,69,720.9,70.4,720.9,72z"/>
	<path class="st1" d="M741.9,59.6l8.9,0c2,0,3.6,0.5,4.7,1.6c1.1,1.1,1.7,2.7,1.7,4.8c0,1.7-0.3,3-1,4.1c-0.6,1.1-1.6,1.7-3,2l0,0.1
		c0.8,0.1,1.5,0.3,2,0.6c0.5,0.3,0.9,0.8,1.1,1.4c0.3,0.6,0.5,1.3,0.6,2.2c0.1,0.9,0.2,2,0.2,3.3c0,1.3,0.1,2.3,0.2,3
		c0.1,0.7,0.4,1.2,0.9,1.4l0,0.2l-5.3,0c-0.2-0.3-0.4-0.7-0.5-1.2c-0.1-0.5-0.1-0.9-0.1-1.4l-0.1-4.8c0-1-0.3-1.7-0.7-2.3
		c-0.4-0.6-1.1-0.8-2.1-0.8l-2.5,0l0,10.5l-4.8,0L741.9,59.6z M746.7,70.4l2,0c1.2,0,2.1-0.3,2.7-0.9c0.6-0.6,0.9-1.5,0.9-2.9
		c0-2.3-1.1-3.4-3.4-3.4l-2.3,0L746.7,70.4z"/>
	<path class="st1" d="M767.2,59.5l8.9,0c2,0,3.6,0.5,4.7,1.6c1.1,1.1,1.7,2.7,1.7,4.8c0,1.7-0.3,3-1,4.1c-0.6,1.1-1.6,1.7-3,2l0,0.1
		c0.8,0.1,1.5,0.3,2,0.6c0.5,0.3,0.9,0.8,1.1,1.4c0.3,0.6,0.5,1.3,0.6,2.2c0.1,0.9,0.2,2,0.2,3.3c0,1.3,0.1,2.3,0.2,3
		c0.1,0.7,0.4,1.2,0.9,1.4l0,0.2l-5.3,0c-0.3-0.3-0.4-0.7-0.5-1.2c-0.1-0.5-0.1-0.9-0.1-1.4l-0.1-4.8c0-1-0.3-1.7-0.7-2.3
		c-0.4-0.6-1.1-0.8-2.1-0.8l-2.5,0l0,10.5l-4.8,0L767.2,59.5z M772,70.4l2,0c1.2,0,2.1-0.3,2.7-0.9c0.6-0.6,0.9-1.5,0.9-2.9
		c0-2.3-1.1-3.4-3.4-3.4l-2.3,0L772,70.4z"/>
	<path class="st1" d="M792,71.9c0-1.9,0.1-3.6,0.2-5.2c0.2-1.6,0.5-3,1.1-4.1c0.6-1.1,1.4-2,2.5-2.7c1.1-0.6,2.5-1,4.3-1
		c1.8,0,3.2,0.3,4.3,0.9c1.1,0.6,1.9,1.5,2.5,2.7c0.6,1.1,0.9,2.5,1.1,4.1c0.2,1.6,0.3,3.3,0.3,5.2c0,1.9-0.1,3.6-0.2,5.2
		c-0.2,1.6-0.5,3-1.1,4.1c-0.6,1.1-1.4,2-2.5,2.7c-1.1,0.6-2.5,1-4.3,1c-1.8,0-3.2-0.3-4.3-0.9c-1.1-0.6-1.9-1.5-2.5-2.7
		c-0.6-1.1-0.9-2.5-1.1-4.1C792.1,75.5,792,73.8,792,71.9z M796.8,71.9c0,1.7,0,3.1,0.1,4.3c0.1,1.2,0.2,2.1,0.5,2.9
		c0.2,0.7,0.6,1.3,1,1.6c0.4,0.3,1,0.5,1.7,0.5c0.7,0,1.3-0.2,1.7-0.5c0.4-0.3,0.8-0.9,1-1.6c0.2-0.7,0.4-1.7,0.5-2.9
		c0.1-1.2,0.1-2.6,0.1-4.3c0-1.7,0-3.1-0.1-4.2c-0.1-1.2-0.2-2.1-0.5-2.9c-0.2-0.7-0.6-1.3-1-1.6c-0.4-0.3-1-0.5-1.7-0.5
		c-0.7,0-1.3,0.2-1.7,0.5c-0.4,0.3-0.8,0.9-1,1.6c-0.2,0.7-0.4,1.7-0.5,2.9C796.9,68.8,796.8,70.2,796.8,71.9z"/>
	<path class="st1" d="M836.4,59.4l3.2,9.6l0.1,0l3.3-9.6l5.2,0L842,74.5l0,9.8l-4.8,0l0-9.8L831,59.4L836.4,59.4z"/>
	<path class="st1" d="M881.6,67.7c0-1.8-0.2-3.1-0.6-3.9c-0.4-0.8-1.2-1.2-2.3-1.2c-0.6,0-1.1,0.2-1.5,0.5c-0.4,0.3-0.7,0.9-0.9,1.6
		c-0.2,0.8-0.4,1.7-0.5,3c-0.1,1.2-0.1,2.7-0.1,4.5c0,1.9,0.1,3.4,0.2,4.6c0.1,1.2,0.3,2.1,0.6,2.7c0.3,0.6,0.6,1.1,1,1.3
		c0.4,0.2,0.8,0.3,1.4,0.3c0.4,0,0.8-0.1,1.2-0.2c0.4-0.2,0.7-0.5,1-0.9c0.3-0.5,0.5-1.1,0.6-1.9c0.2-0.8,0.2-1.9,0.2-3.3l4.8,0
		c0,1.3-0.1,2.6-0.3,3.8c-0.2,1.2-0.6,2.3-1.1,3.2c-0.5,0.9-1.3,1.6-2.3,2.2c-1,0.5-2.3,0.8-3.9,0.8c-1.8,0-3.2-0.3-4.3-0.9
		c-1.1-0.6-1.9-1.5-2.5-2.7c-0.6-1.1-0.9-2.5-1.1-4.1c-0.2-1.6-0.3-3.3-0.3-5.2c0-1.9,0.1-3.6,0.2-5.2c0.2-1.6,0.5-3,1.1-4.1
		c0.6-1.1,1.4-2,2.5-2.7c1.1-0.6,2.5-1,4.3-1c1.7,0,3.1,0.3,4.1,0.9c1,0.6,1.7,1.3,2.2,2.2c0.5,0.9,0.8,1.9,0.9,2.9
		c0.1,1,0.2,2,0.2,2.9L881.6,67.7z"/>
	<path class="st1" d="M896,59.3l8.9,0c2,0,3.6,0.5,4.7,1.6c1.1,1.1,1.7,2.7,1.7,4.8c0,1.7-0.3,3-1,4.1c-0.6,1.1-1.6,1.7-3,2l0,0.1
		c0.8,0.1,1.5,0.3,2,0.6c0.5,0.3,0.9,0.8,1.1,1.4c0.3,0.6,0.5,1.3,0.6,2.2c0.1,0.9,0.2,2,0.2,3.3c0,1.3,0.1,2.3,0.2,3
		c0.1,0.7,0.4,1.2,0.9,1.4l0,0.2l-5.3,0c-0.2-0.3-0.4-0.7-0.5-1.2c-0.1-0.5-0.1-0.9-0.1-1.4l-0.1-4.8c0-1-0.3-1.7-0.7-2.3
		c-0.4-0.6-1.1-0.8-2.1-0.8l-2.5,0l0,10.5l-4.8,0L896,59.3z M900.9,70.1l2,0c1.2,0,2.1-0.3,2.7-0.9c0.6-0.6,0.9-1.5,0.9-2.9
		c0-2.3-1.1-3.4-3.4-3.4l-2.3,0L900.9,70.1z"/>
	<path class="st1" d="M934.7,59.2l0,4.1l-8.5,0l0,5.8l8,0l0,4.1l-8,0l0,6.7l8.9,0l0,4.1l-13.7,0l0-24.8L934.7,59.2z M928.1,52.8
		l4.6,0l-3.3,5l-3.1,0L928.1,52.8z"/>
	<path class="st1" d="M944.4,59.2l7.9,0c1.7,0,3,0.3,4.1,0.8c1,0.6,1.8,1.4,2.4,2.4c0.6,1.1,1,2.3,1.2,3.8c0.2,1.5,0.3,3.1,0.3,5
		c0,2.2-0.1,4.1-0.4,5.7c-0.3,1.6-0.7,2.9-1.3,4c-0.6,1-1.5,1.8-2.5,2.3c-1,0.5-2.4,0.8-4,0.8l-7.6,0L944.4,59.2z M949.2,80.3l2.1,0
		c0.8,0,1.5-0.2,2-0.5c0.5-0.3,0.9-0.8,1.2-1.5c0.3-0.7,0.5-1.6,0.6-2.7c0.1-1.1,0.1-2.6,0.1-4.2c0-1.4-0.1-2.6-0.1-3.7
		c-0.1-1.1-0.3-1.9-0.6-2.7c-0.3-0.7-0.7-1.3-1.2-1.6c-0.5-0.4-1.3-0.5-2.2-0.5l-2,0L949.2,80.3z"/>
	<path class="st1" d="M970.3,84l0-24.8l4.8,0l0,24.8L970.3,84z"/>
	<path class="st1" d="M999.3,59.1l0,4.1l-5.2,0l0,20.7l-4.8,0l0-20.7l-5.2,0l0-4.1L999.3,59.1z"/>
	<path class="st1" d="M1007.6,71.5c0-1.9,0.1-3.6,0.2-5.2c0.2-1.6,0.5-3,1.1-4.1c0.6-1.1,1.4-2,2.5-2.7c1.1-0.6,2.5-1,4.3-1
		c1.8,0,3.2,0.3,4.3,0.9c1.1,0.6,1.9,1.5,2.5,2.7c0.6,1.1,0.9,2.5,1.1,4.1c0.2,1.6,0.3,3.3,0.3,5.2c0,1.9-0.1,3.6-0.2,5.2
		c-0.2,1.6-0.5,3-1.1,4.1c-0.6,1.1-1.4,2-2.5,2.7c-1.1,0.6-2.5,1-4.3,1c-1.8,0-3.2-0.3-4.3-0.9c-1.1-0.6-1.9-1.5-2.5-2.7
		c-0.6-1.1-0.9-2.5-1.1-4.1C1007.7,75.1,1007.6,73.4,1007.6,71.5z M1012.5,71.5c0,1.7,0,3.1,0.1,4.3c0.1,1.2,0.2,2.1,0.5,2.9
		c0.2,0.7,0.6,1.3,1,1.6c0.4,0.3,1,0.5,1.7,0.5c0.7,0,1.3-0.2,1.7-0.5c0.4-0.3,0.8-0.9,1-1.6c0.2-0.7,0.4-1.7,0.5-2.9
		c0.1-1.2,0.1-2.6,0.1-4.3c0-1.7,0-3.1-0.1-4.2c-0.1-1.2-0.2-2.1-0.5-2.9c-0.2-0.7-0.6-1.3-1-1.6c-0.4-0.3-1-0.5-1.7-0.5
		c-0.7,0-1.3,0.2-1.7,0.5c-0.4,0.3-0.8,0.9-1,1.6c-0.2,0.7-0.4,1.7-0.5,2.9C1012.5,68.4,1012.4,69.8,1012.5,71.5z"/>
	<g>
		<path class="st2" d="M244.7,64.9c-20.5-20.5-48.8-33.2-79.9-33.2c-31.2,0-59.5,12.7-79.9,33.2c-20.5,20.5-33.2,48.8-33.2,79.9
			c0,31.2,12.7,59.5,33.2,79.9l17.5-17.5c-16-16-25.9-38.1-25.9-62.5c0-24.4,9.9-46.5,25.9-62.5c16-16,38.1-25.9,62.5-25.9
			c24.4,0,46.5,9.9,62.5,25.9c16,16,25.9,38.1,25.9,62.5c0,24.4-9.9,46.5-25.9,62.5l17.5,17.5c20.5-20.5,33.2-48.8,33.2-79.9
			C277.8,113.7,265.1,85.4,244.7,64.9z"/>
		<path class="st2" d="M164.3,262c-32.3,0-61.5-13.1-82.7-34.3s-34.3-50.5-34.3-82.7c0-32.3,13.1-61.5,34.3-82.7
			s50.5-34.3,82.7-34.3s61.5,13.1,82.7,34.3L264.2,45c-25.6-25.6-60.9-41.4-99.9-41.4S90,19.4,64.4,45C38.9,70.6,23,105.9,23,144.9
			c0,39,15.9,74.3,41.4,99.9c25.6,25.6,60.9,41.4,99.9,41.4s74.3-15.9,99.9-41.4l-17.1-17.1C225.9,248.8,196.6,262,164.3,262z"/>
		<path class="st2" d="M129.3,172.8c0-0.1,0-0.2,0-0.3c-0.1-0.6-0.2-1.1-0.6-1.6c-0.2-0.3-0.4-0.5-0.6-0.7l0,0
			c-0.2-0.1-0.4-0.3-0.5-0.4l-0.1-0.1c-0.2-0.1-0.3-0.1-0.5-0.2c-0.1,0-0.1,0-0.2-0.1c-0.2,0-0.3-0.1-0.4-0.1c-0.1,0-0.2,0-0.3,0
			c0,0-0.1,0-0.1,0c-0.2,0-0.4,0-0.6,0c0,0,0,0,0,0l0,0c-0.1,0-0.2,0-0.3,0c-0.1,0-0.3,0.1-0.4,0.1l-0.1,0c-0.1,0-0.2,0.1-0.2,0.1
			c-0.1,0.1-0.3,0.2-0.4,0.3l-0.2,0.1c-0.2,0.1-0.4,0.3-0.5,0.5l0,0l0,0l-3.2,4l-1.7,2c-1.2,1.5-1,3.6,0.5,4.8
			c0.7,0.6,1.6,0.9,2.5,0.8c0.9-0.1,1.7-0.5,2.3-1.2l0.2-0.3l0-0.1l0,0c0.1-0.1,0.1-0.2,0.2-0.3l0,0l0.8-1.1l0,0l3.8-4.7
			C129.1,174,129.3,173.4,129.3,172.8z"/>
		<path class="st2" d="M141.1,175.8c-0.1-1.2-0.7-2.3-1.7-3.1c-0.2-0.2-0.4-0.3-0.7-0.5l-0.2-0.1v0c-0.2-0.1-0.4-0.2-0.6-0.2
			c-0.1,0-0.2,0-0.3-0.1c0,0,0,0,0,0l0,0c0,0,0,0-0.1,0c-0.2,0-0.3-0.1-0.5-0.1c-0.1,0-0.2,0-0.3,0c-0.2,0-0.5,0-0.7,0
			c-1.2,0.1-2.3,0.7-3.1,1.7l-2.2,2.7c-0.1,0.1-0.3,0.4-0.4,0.6l-4.7,5.7c-1.1,1.8-0.7,4.4,1.1,5.9c1.8,1.5,4.4,1.4,6.1-0.2
			c0.1-0.1,0.3-0.3,0.4-0.4l0,0l6.8-8.3C140.9,178.2,141.2,177,141.1,175.8z"/>
		<path class="st2" d="M147.5,181.5l-0.2-0.2l0,0c-0.2-0.2-0.4-0.3-0.7-0.5c0,0-0.1,0-0.1-0.1c-0.3-0.1-0.4-0.2-0.6-0.3
			c-0.1,0-0.1,0-0.2-0.1c-0.3-0.1-0.4-0.1-0.6-0.1c-0.1,0-0.2,0-0.3,0l0,0v0c-0.2,0-0.4,0-0.5,0c-0.1,0-0.1,0-0.2,0
			c-1.2,0.1-2.3,0.7-3,1.6l0,0l0,0l-4.3,5.2l-2,2.4c-1.6,2-1.4,4.8,0.5,6.4l0.2,0.2c0.9,0.8,2.1,1.1,3.3,1c1.2-0.1,2.3-0.7,3-1.6
			l6.3-7.7C149.7,185.9,149.4,183.1,147.5,181.5z"/>
		<path class="st2" d="M151.6,192L151.6,192c-0.1-0.1-0.3-0.2-0.4-0.3h0l-0.1-0.1c-0.1,0-0.2-0.1-0.3-0.1c-0.1,0-0.1,0-0.2,0
			c-0.1,0-0.2,0-0.3-0.1c-0.1,0-0.2,0-0.3,0c0,0-0.1,0-0.1,0c-0.1,0-0.3,0-0.4,0l-0.2,0c-0.1,0-0.2,0.1-0.3,0.1l-0.4-0.4l0.2,0.5
			c-0.1,0.1-0.2,0.1-0.3,0.2l0,0l0,0l0,0l-0.4-0.3l0.3,0.4c-0.2,0.1-0.3,0.3-0.4,0.4l0,0l0,0l-3.6,4.4l0,0l-0.1,0.1
			c-0.5,0.6-0.7,1.3-0.6,2c0.1,0.7,0.4,1.4,1,1.8l0.6,0.5c0.6,0.5,1.3,0.7,2,0.6c0.7-0.1,1.4-0.4,1.8-1l1.2-1.4l2.5-3
			c0.9-1.2,0.8-2.9-0.4-3.8L151.6,192z"/>
		<path class="st2" d="M118.5,171.9c0,0.1,0.1,0.1,0.2,0.2l0.1,0.1l2.6-3.1c1-1.2,2.4-2,4-2.1c1.6-0.1,3.1,0.3,4.3,1.3
			c0.3,0.2,0.6,0.5,0.8,0.8c0.1,0.1,0.1,0.1,0.1,0.2l0.1,0.1c0.1,0.2,0.3,0.4,0.4,0.6c0,0.1,0.1,0.2,0.1,0.3l0.1,0.1
			c0.1,0.2,0.2,0.4,0.2,0.6c0,0.1,0,0.2,0.1,0.2c1.2-1.2,2.7-1.9,4.4-2.1c1.9-0.2,3.7,0.4,5.1,1.6c1.4,1.2,2.3,2.9,2.5,4.8
			c0,0.4,0,0.8,0,1.2c0,0.1,0,0.2,0,0.3c0,0.3-0.1,0.7-0.2,1c0.1,0,0.3,0,0.4-0.1l0.1,0c0.4,0,0.8,0,1.3,0l0.1,0
			c0.4,0,0.8,0.1,1.2,0.2c0.4,0.1,0.7,0.3,1.1,0.5c0.1,0,0.2,0.1,0.3,0.1c0.4,0.2,0.7,0.4,1,0.7l0.2,0.2c2.8,2.3,3.3,6.4,1.3,9.3
			c0.2,0,0.4,0.1,0.6,0.1l0.1,0.5l0.1-0.5c0.1,0,0.1,0,0.2,0c0.2,0.1,0.5,0.2,0.7,0.3l0.3,0.1c0.3,0.2,0.6,0.4,0.9,0.6l0.6,0.5
			c2.2,1.8,2.5,5,0.7,7.2l-0.8,1c8.1,3,13.8,3.6,17,1.9c1.2-0.6,2-1.6,2.4-2.9l-13.5-6.6l-0.4,0.9l0-1.1l-0.5-0.2l1.1-2.2l13.9,6.9
			l0,0l1.4,0.7c0.2,0.1,3.2,1.7,5.9-1.2c1.3-1.4,1-3.4,0.8-4.2l-17-9.4l1.2-2.1l17.4,9.6c0.4,0.1,4.2,1.3,6.3-1
			c1.6-1.8,0.4-4.1,0-4.7L170.2,171l1.3-2.1l19.7,12c0.1,0.1,3.5,2,6.3-1.4c2.1-2.6,0.8-4.3,0.6-4.5c-14.6-14.6-33.8-24.1-37.7-25.7
			c-0.6-0.3-0.8-0.3-0.8-0.3c-2.3-0.2-4,0.1-5.3,2.1c-2.1,3.3-10.2,8.7-16.4,9c-2.6,0.1-3.8-0.8-4.3-1.7c-1.3-2.1,0.3-5,0.6-5.6
			l1.6-2.6c0.1-0.2,0.2-0.4,0.4-0.6c0-0.1,0.1-0.2,0.2-0.3l1.7-2.6c0.8-1.2,1.6-2.2,2.3-3.2l1-1.3c-6-0.7-11.1-4.1-11.7-4.4
			l-45.1-19.4c-2.7,8.3-4.2,17.1-4.2,26.3c0,2.6,0.1,5.2,0.4,7.8c8.7,0.6,20,2,24.7,5.5C114.4,164.4,118.2,171.2,118.5,171.9z"/>
		<path class="st2" d="M244.7,117.6l-52,18.8c0,0-5.8,2.8-13.4,1.6l-1.3-0.2c-6.5-1-11.2-1.8-17-1.1c-0.6,0.1-1.3,0.1-1.9,0.2
			l-0.7,0.1c-4.9,0.5-8.8,0.9-12,3.7c-0.4,0.4-0.9,0.9-1.4,1.4c-0.7,0.7-1.4,1.6-2.1,2.5c-0.2,0.2-0.3,0.4-0.5,0.7
			c-0.5,0.6-0.9,1.3-1.4,1.9c-0.4,0.5-0.7,1-1,1.5c-0.4,0.5-0.7,1.1-1,1.5c-0.3,0.4-0.6,0.9-0.8,1.3c-0.3,0.5-0.6,1-0.9,1.3
			c-0.4,0.6-0.7,1.1-0.8,1.2c-0.5,0.8-1.1,2.5-0.7,3.1c0.2,0.4,1,0.6,2.1,0.5c5.7-0.3,12.9-5.3,14.4-7.8c0.2-0.3,0.4-0.6,0.6-0.9
			c0,0,0.1-0.1,0.1-0.2l0,0c0,0,0,0,0,0l0,0c0.2-0.2,0.4-0.5,0.7-0.7l0.1-0.1c0.2-0.2,0.4-0.3,0.7-0.5l0.1-0.1
			c0.2-0.1,0.5-0.3,0.7-0.4c0.1,0,0.1,0,0.2-0.1c0.2-0.1,0.4-0.2,0.7-0.2c0,0,0.1,0,0.1,0l0,0c0.2-0.1,0.5-0.1,0.7-0.2l0.2,0v0
			c0.2,0,0.4-0.1,0.6-0.1l0.2,0.5h0l0-0.5c0.2,0,0.3,0,0.5,0l0.2,0c0.2,0,0.4,0,0.5,0l0.2,0v0l0.4,0c0.1,0,0.2,0,0.3,0.1l0,0l0,0
			l0.2,0l0,0l0.2,0.1l0,0l0.1,0l0,0l0.3,0.1l0,0l0.2,0.1l0,0l0.4,0.1l0,0l0.2,0.1l0,0.5h0l0.2-0.5l0.4,0.2l0,0l0.3,0.1l0,0l0.4,0.2
			l0,0l0.4,0.2l0,0l0.4,0.2l0,0l0.4,0.2c0.2,0.1,0.3,0.1,0.5,0.2v0l0.5,0.3l0,0l0.5,0.3l0-0.1l0.6,0.3l0,0.1l0.5,0.3l0-0.1l0.6,0.3
			l-0.1,0.1l0.5,0.3l0.1-0.1l0.6,0.3l-0.1,0.1l0.6,0.3l0.1-0.1l0.6,0.3l-0.1,0.2l0.6,0.4l0.1-0.2l0.6,0.4l-0.1,0.2l0.7,0.4l0.1-0.1
			l0.7,0.4l-0.1,0.1l0.7,0.4l0.1-0.1l0.7,0.4l-0.1,0.1l0.7,0.4l0.1-0.1l0.8,0.5l0,0.1l0.7,0.4l0,0l0.8,0.5l0.7,0.5l0,0l0.8,0.5l0,0
			l0.7,0.5l0,0l0.8,0.5l0,0l0.7,0.5l0,0l0.8,0.6c0.3,0.2,0.5,0.3,0.8,0.5l0,0l0.8,0.6l0,0l0.8,0.6l0,0l0.7,0.5l-0.1,0.5l0.3-0.4
			c0.2,0.2,0.5,0.3,0.7,0.5l0,0l0.8,0.6l0,0l0.8,0.6l0,0l0.8,0.6l0,0.1l0.8,0.6l0.1-0.1l0.8,0.6l-0.1,0.1l0.8,0.6l0.1-0.1l0.8,0.7
			l-0.1,0.1l0.8,0.6l0,0l0.8,0.7l0,0l0.8,0.6l0.8,0.7l0,0l0.8,0.7l0,0l0.8,0.7c0.3,0.2,0.5,0.5,0.8,0.7l0,0l0.8,0.7l0,0l0.2,0.2
			c0.2,0.2,0.4,0.4,0.6,0.6l0,0c0.3,0.2,0.5,0.5,0.7,0.7l0.2,0.2c2.6-2.1,9.6-8.1,12.2-12.9c2.4-4.6,21.8-5.5,37.4-5.4
			c0.3-3.1,0.5-6.2,0.5-9.4C249.2,135.3,247.6,126.2,244.7,117.6z"/>
		<g>
			<path class="st3" d="M244.7,224.8l-17.5-17.5c-16,16-38.1,25.9-62.5,25.9s-46.5-9.9-62.5-25.9l-17.5,17.5
				c20.5,20.5,48.8,33.2,79.9,33.2S224.2,245.3,244.7,224.8z"/>
		</g>
	</g>
	<g>
		<path class="st1" d="M445.9,221.5l2.8-0.3l0,0.9c0,1.2,0.2,2.2,0.7,3.2c0.4,0.7,1,1.3,1.8,1.7c0.9,0.4,1.9,0.7,3.1,0.7
			c1.7,0,3-0.4,3.9-1.3c1-0.9,1.5-2,1.5-3.3c0-0.9-0.3-1.7-0.8-2.4c-0.6-0.7-1.9-1.5-4-2.6c-1.6-0.9-2.7-1.5-3.3-1.9
			c-1-0.8-1.8-1.6-2.3-2.6c-0.5-0.9-0.7-2-0.7-3.2c0-2.1,0.7-3.8,2-5.1c1.4-1.3,3.2-2,5.6-2c1.6,0,3,0.3,4.2,0.9
			c1.2,0.6,2.1,1.5,2.8,2.7c0.7,1.2,1,2.4,1,3.8l0,0.6l-2.8,0.3l0-0.6c0-0.9-0.2-1.7-0.6-2.4c-0.4-0.7-1-1.3-1.8-1.7
			s-1.7-0.6-2.7-0.6c-1.5,0-2.6,0.4-3.5,1.1c-0.8,0.7-1.2,1.7-1.2,2.9c0,1.1,0.3,1.9,0.9,2.5c0.6,0.6,2.2,1.5,4.6,2.9
			c1.8,1,3,1.8,3.7,2.4c0.6,0.6,1.2,1.3,1.5,2.2c0.4,0.9,0.5,1.8,0.5,2.9c0,2.2-0.8,4.1-2.3,5.5c-1.6,1.5-3.6,2.2-6.1,2.2
			c-2.7,0-4.8-0.7-6.2-2.2C446.6,226.9,445.9,224.6,445.9,221.5z"/>
		<path class="st1" d="M475.4,226.6c-1.9,2.6-3.8,3.9-5.8,3.9c-1.1,0-2.1-0.4-2.9-1.2c-0.8-0.8-1.2-1.9-1.2-3.2
			c0-0.8,0.2-2.2,0.5-4.2l1.9-11.1h2.7l-2.1,12.3c-0.2,1-0.3,1.8-0.3,2.4c0,0.8,0.2,1.3,0.6,1.7c0.4,0.4,0.9,0.6,1.6,0.6
			c1,0,1.9-0.4,2.8-1.1c0.9-0.8,1.6-1.7,2.1-2.9c0.4-1.2,0.8-2.7,1.2-4.6l1.5-8.3h2.7l-3.5,19.2h-2.5L475.4,226.6z"/>
		<path class="st1" d="M500.1,223.1l2.7,0.3c-0.7,2.4-1.6,4.2-2.9,5.3c-1.3,1.2-2.7,1.7-4.2,1.7c-1.7,0-3-0.7-4.1-2
			c-1.1-1.3-1.6-3.2-1.6-5.7c0-2.4,0.4-4.7,1.2-6.7c0.8-2,1.8-3.5,3-4.4c1.2-0.9,2.6-1.4,4.1-1.4c1.6,0,2.9,0.6,4,1.7
			c1,1.1,1.5,2.7,1.5,4.7l-2.6,0.2c0-1.3-0.3-2.2-0.9-2.9c-0.6-0.7-1.3-1-2.2-1c-1,0-1.8,0.3-2.6,1c-0.8,0.6-1.4,1.8-2,3.5
			c-0.6,1.7-0.8,3.6-0.8,5.7c0,1.5,0.3,2.7,0.9,3.5c0.6,0.8,1.3,1.2,2.2,1.2c0.9,0,1.7-0.4,2.5-1.2C499,226,499.7,224.7,500.1,223.1
			z"/>
		<path class="st1" d="M504.5,222.8c0-3.5,0.8-6.4,2.3-8.8s3.6-3.6,6.3-3.6c1.8,0,3.3,0.7,4.5,2.1c1.2,1.4,1.8,3.4,1.8,6
			c0,2.4-0.4,4.5-1.2,6.4s-1.9,3.3-3.2,4.2c-1.3,0.9-2.7,1.4-4.1,1.4c-1.9,0-3.4-0.7-4.6-2.1C505.2,227.1,504.5,225.2,504.5,222.8z
			 M507.2,222.5c0,1.8,0.4,3.2,1.1,4.1c0.7,0.9,1.6,1.4,2.7,1.4c0.9,0,1.7-0.3,2.6-1c0.9-0.7,1.6-1.8,2.2-3.4c0.6-1.6,1-3.2,1-4.9
			c0-1.8-0.4-3.2-1.1-4.2c-0.7-0.9-1.6-1.4-2.7-1.4c-0.9,0-1.8,0.3-2.7,1c-0.9,0.7-1.6,1.8-2.2,3.4
			C507.5,219,507.2,220.7,507.2,222.5z"/>
		<path class="st1" d="M520.6,230.1l3.3-19.2h2.5l-0.6,3.3c1.1-1.4,2.2-2.4,3.1-3c0.9-0.5,1.8-0.8,2.7-0.8c1.2,0,2.2,0.4,3,1.2
			c0.8,0.8,1.1,2,1.1,3.5c0,0.7-0.1,1.8-0.4,3.3l-2.1,11.6h-2.7l2.2-12.2c0.2-1.2,0.3-2.1,0.3-2.6c0-0.7-0.2-1.2-0.6-1.6
			c-0.4-0.4-0.9-0.6-1.6-0.6c-1.4,0-2.6,0.6-3.7,1.8c-1.1,1.2-1.9,3.3-2.4,6.2l-1.5,8.9H520.6z"/>
		<path class="st1" d="M537.5,230.1l2.9-16.7h-2.4l0.4-2.5h2.4l0.5-2.7c0.3-1.9,0.7-3.1,1.2-3.7c0.7-0.9,1.7-1.3,3.1-1.3
			c0.7,0,1.6,0.2,2.9,0.5l-0.5,2.9c-0.9-0.3-1.7-0.4-2.3-0.4c-0.5,0-0.9,0.2-1.2,0.5c-0.3,0.3-0.5,1.1-0.7,2.3l-0.4,2.1h3l-0.4,2.5
			h-3l-2.8,16.7H537.5z"/>
		<path class="st1" d="M545.1,230.1l3.3-19.2h2.7l-3.3,19.2H545.1z M549,207.3l0.6-3.7h2.7l-0.6,3.7H549z"/>
		<path class="st1" d="M562.2,227.7c-1,1-1.9,1.8-2.8,2.2s-1.7,0.6-2.6,0.6c-1.4,0-2.6-0.5-3.5-1.5c-0.9-1-1.4-2.4-1.4-4.1
			c0-1.2,0.3-2.3,0.8-3.2c0.5-0.9,1.3-1.6,2.3-2.1c1-0.5,2.4-0.8,4.2-0.9c1.5-0.1,2.6-0.2,3.2-0.3c0.6-0.1,1.1-0.2,1.5-0.4
			c0.3-0.9,0.4-1.7,0.4-2.2c0-0.8-0.3-1.4-0.9-1.9s-1.5-0.7-2.6-0.7c-2.3,0-3.8,1.2-4.5,3.5l-2.7-0.3c1.2-3.9,3.6-5.9,7.4-5.9
			c1.9,0,3.3,0.5,4.4,1.5c1.1,1,1.6,2.2,1.6,3.7c0,1-0.1,2.2-0.4,3.5l-1,4.8c-0.3,1.5-0.5,2.7-0.5,3.7c0,0.6,0.1,1.5,0.3,2.6h-2.8
			C562.3,229.5,562.2,228.7,562.2,227.7z M563.4,220.4c-0.7,0.3-1.8,0.6-3.4,0.7c-1.6,0.2-2.8,0.4-3.4,0.7c-0.6,0.3-1.1,0.7-1.4,1.2
			s-0.5,1.2-0.5,1.9c0,1,0.3,1.7,0.8,2.3c0.5,0.6,1.3,0.9,2.2,0.9c0.9,0,1.7-0.3,2.5-0.8c0.8-0.5,1.5-1.3,2-2.3
			C562.6,223.9,563,222.4,563.4,220.4z"/>
		<path class="st1" d="M568.1,230.1l3.3-19.2h2.5l-0.6,3.3c1.1-1.4,2.2-2.4,3.1-3c0.9-0.5,1.8-0.8,2.7-0.8c1.2,0,2.2,0.4,3,1.2
			c0.8,0.8,1.1,2,1.1,3.5c0,0.7-0.1,1.8-0.4,3.3l-2.1,11.6H578l2.2-12.2c0.2-1.2,0.3-2.1,0.3-2.6c0-0.7-0.2-1.2-0.6-1.6
			c-0.4-0.4-0.9-0.6-1.6-0.6c-1.4,0-2.6,0.6-3.7,1.8c-1.1,1.2-1.9,3.3-2.4,6.2l-1.5,8.9H568.1z"/>
		<path class="st1" d="M584.2,230.1l0.4-2.5l8.5-11.6c0.6-0.8,1.3-1.7,2-2.6c-1.3,0.2-2.2,0.2-2.8,0.2h-5.8l0.5-2.7h12.2l-0.3,2.1
			l-8.6,11.7c-0.5,0.7-1.2,1.6-2.2,2.7c1.5-0.1,2.5-0.2,3.1-0.2h6.2l-0.5,2.9H584.2z"/>
		<path class="st1" d="M610,227.7c-1,1-1.9,1.8-2.8,2.2s-1.7,0.6-2.6,0.6c-1.4,0-2.6-0.5-3.5-1.5c-0.9-1-1.4-2.4-1.4-4.1
			c0-1.2,0.3-2.3,0.8-3.2c0.5-0.9,1.3-1.6,2.3-2.1c1-0.5,2.4-0.8,4.2-0.9c1.5-0.1,2.6-0.2,3.2-0.3c0.6-0.1,1.1-0.2,1.5-0.4
			c0.3-0.9,0.4-1.7,0.4-2.2c0-0.8-0.3-1.4-0.9-1.9s-1.5-0.7-2.6-0.7c-2.3,0-3.8,1.2-4.5,3.5l-2.7-0.3c1.2-3.9,3.6-5.9,7.4-5.9
			c1.9,0,3.3,0.5,4.4,1.5c1.1,1,1.6,2.2,1.6,3.7c0,1-0.1,2.2-0.4,3.5l-1,4.8c-0.3,1.5-0.5,2.7-0.5,3.7c0,0.6,0.1,1.5,0.3,2.6h-2.8
			C610.2,229.5,610.1,228.7,610,227.7z M611.2,220.4c-0.7,0.3-1.8,0.6-3.4,0.7c-1.6,0.2-2.8,0.4-3.4,0.7c-0.6,0.3-1.1,0.7-1.4,1.2
			s-0.5,1.2-0.5,1.9c0,1,0.3,1.7,0.8,2.3c0.5,0.6,1.3,0.9,2.2,0.9c0.9,0,1.7-0.3,2.5-0.8c0.8-0.5,1.5-1.3,2-2.3
			C610.4,223.9,610.9,222.4,611.2,220.4z"/>
		<path class="st1" d="M635.6,223.6l2.6,0.3c-0.4,1.9-1.4,3.5-3,4.9c-1.3,1.2-2.8,1.8-4.4,1.8c-1.1,0-2.2-0.3-3.1-0.9
			c-0.9-0.6-1.7-1.5-2.2-2.8c-0.6-1.2-0.8-2.7-0.8-4.4c0-2.3,0.4-4.4,1.3-6.3c0.9-2,1.9-3.4,3.1-4.3c1.2-0.9,2.6-1.3,4-1.3
			c1.8,0,3.3,0.7,4.5,2.1c1.2,1.4,1.7,3.3,1.7,5.9c0,0.9-0.1,1.9-0.2,2.9h-11.6c0,0.4-0.1,0.7-0.1,1c0,1.8,0.3,3.2,1,4.1
			c0.7,0.9,1.5,1.4,2.5,1.4c0.9,0,1.8-0.4,2.7-1.1C634.4,226,635.1,224.9,635.6,223.6z M627.8,218.8h8.9v-0.7c0-1.7-0.3-3-1-3.9
			c-0.7-0.9-1.5-1.3-2.6-1.3c-1.1,0-2.2,0.5-3.1,1.5C628.9,215.4,628.2,216.9,627.8,218.8z"/>
		<path class="st1" d="M640.7,223.5l2.7-0.2c0,1.6,0.3,2.7,1,3.5c0.7,0.8,1.7,1.2,2.9,1.2c1.1,0,2-0.3,2.6-0.8c0.6-0.5,1-1.2,1-2.1
			c0-0.6-0.2-1.2-0.6-1.7c-0.4-0.5-1.3-1.1-2.7-1.8c-1.6-0.8-2.6-1.5-3.1-1.9c-0.5-0.4-0.9-1-1.2-1.6c-0.3-0.6-0.4-1.3-0.4-2.1
			c0-1.6,0.5-2.9,1.6-4c1-1,2.4-1.6,4.1-1.6c1.9,0,3.3,0.5,4.4,1.6c1.1,1.1,1.7,2.6,1.7,4.5l-2.6,0.2c0-1.2-0.4-2.1-1-2.8
			c-0.7-0.7-1.5-1-2.7-1c-0.9,0-1.6,0.2-2.1,0.7c-0.5,0.5-0.8,1.1-0.8,1.7c0,0.6,0.2,1,0.5,1.4c0.3,0.4,1.2,1,2.5,1.6
			c2,1.1,3.3,1.9,3.9,2.6c0.8,1,1.3,2.2,1.3,3.7c0,1.6-0.6,3-1.7,4.1c-1.1,1.1-2.7,1.7-4.7,1.7c-2,0-3.6-0.6-4.7-1.7
			c-1.1-1.2-1.7-2.8-1.7-4.9V223.5z"/>
		<path class="st1" d="M663.4,230.1l3.3-19.2h2.5l-0.6,3.3c1.1-1.4,2.2-2.4,3.1-3c0.9-0.5,1.8-0.8,2.7-0.8c1.2,0,2.2,0.4,3,1.2
			c0.8,0.8,1.1,2,1.1,3.5c0,0.7-0.1,1.8-0.4,3.3l-2.1,11.6h-2.7l2.2-12.2c0.2-1.2,0.3-2.1,0.3-2.6c0-0.7-0.2-1.2-0.6-1.6
			c-0.4-0.4-0.9-0.6-1.6-0.6c-1.4,0-2.6,0.6-3.7,1.8c-1.1,1.2-1.9,3.3-2.4,6.2l-1.5,8.9H663.4z"/>
		<path class="st1" d="M690.7,226.6c-1.9,2.6-3.8,3.9-5.8,3.9c-1.1,0-2.1-0.4-2.9-1.2c-0.8-0.8-1.2-1.9-1.2-3.2
			c0-0.8,0.2-2.2,0.5-4.2l1.9-11.1h2.7l-2.1,12.3c-0.2,1-0.3,1.8-0.3,2.4c0,0.8,0.2,1.3,0.6,1.7c0.4,0.4,0.9,0.6,1.6,0.6
			c1,0,1.9-0.4,2.9-1.1c0.9-0.8,1.6-1.7,2.1-2.9c0.4-1.2,0.8-2.7,1.2-4.6l1.5-8.3h2.7l-3.5,19.2h-2.5L690.7,226.6z"/>
		<path class="st1" d="M708,223.6l2.6,0.3c-0.4,1.9-1.4,3.5-3,4.9c-1.3,1.2-2.8,1.8-4.4,1.8c-1.1,0-2.2-0.3-3.1-0.9
			c-0.9-0.6-1.7-1.5-2.2-2.8c-0.6-1.2-0.8-2.7-0.8-4.4c0-2.3,0.4-4.4,1.3-6.3s1.9-3.4,3.1-4.3c1.2-0.9,2.6-1.3,4-1.3
			c1.8,0,3.3,0.7,4.5,2.1c1.2,1.4,1.7,3.3,1.7,5.9c0,0.9-0.1,1.9-0.2,2.9h-11.6c0,0.4-0.1,0.7-0.1,1c0,1.8,0.3,3.2,1,4.1
			c0.7,0.9,1.5,1.4,2.5,1.4c0.9,0,1.8-0.4,2.7-1.1C706.9,226,707.5,224.9,708,223.6z M700.2,218.8h8.9v-0.7c0-1.7-0.3-3-1-3.9
			c-0.7-0.9-1.5-1.3-2.6-1.3c-1.1,0-2.2,0.5-3.1,1.5C701.4,215.4,700.7,216.9,700.2,218.8z"/>
		<path class="st1" d="M713.2,223.5l2.7-0.2c0,1.6,0.3,2.7,1,3.5c0.7,0.8,1.7,1.2,2.9,1.2c1.1,0,2-0.3,2.6-0.8c0.6-0.5,1-1.2,1-2.1
			c0-0.6-0.2-1.2-0.6-1.7c-0.4-0.5-1.3-1.1-2.7-1.8c-1.6-0.8-2.6-1.5-3.1-1.9c-0.5-0.4-0.9-1-1.2-1.6c-0.3-0.6-0.4-1.3-0.4-2.1
			c0-1.6,0.5-2.9,1.6-4c1-1,2.4-1.6,4.1-1.6c1.9,0,3.3,0.5,4.4,1.6c1.1,1.1,1.7,2.6,1.7,4.5l-2.6,0.2c0-1.2-0.4-2.1-1-2.8
			c-0.7-0.7-1.5-1-2.7-1c-0.9,0-1.6,0.2-2.1,0.7c-0.5,0.5-0.8,1.1-0.8,1.7c0,0.6,0.2,1,0.5,1.4c0.3,0.4,1.2,1,2.5,1.6
			c2,1.1,3.3,1.9,3.9,2.6c0.8,1,1.3,2.2,1.3,3.7c0,1.6-0.6,3-1.7,4.1c-1.1,1.1-2.7,1.7-4.7,1.7c-2,0-3.6-0.6-4.7-1.7
			c-1.1-1.2-1.7-2.8-1.7-4.9V223.5z"/>
		<path class="st1" d="M733.8,227.4l-0.5,2.7c-0.6,0.2-1.2,0.3-1.8,0.3c-1,0-1.7-0.3-2.3-0.8c-0.6-0.5-0.9-1.2-0.9-2.1
			c0-0.4,0.1-1.4,0.4-2.9l1.9-11.1h-2.1l0.4-2.5h2.1l0.8-4.6l3.1-2.3l-1.2,6.9h2.6l-0.4,2.5h-2.6l-1.8,10.6
			c-0.2,1.4-0.3,2.2-0.3,2.4c0,0.4,0.1,0.7,0.3,0.9c0.2,0.2,0.5,0.3,0.8,0.3C732.9,227.7,733.4,227.6,733.8,227.4z"/>
		<path class="st1" d="M735.9,230.1l3.3-19.2h2.4l-0.7,3.9c1.6-2.9,3.2-4.4,4.7-4.4c0.5,0,1.2,0.2,2,0.7l-1.1,3
			c-0.5-0.4-1-0.6-1.5-0.6c-1,0-2,0.6-2.9,1.9c-1,1.3-1.7,3.6-2.3,6.9l-1.3,7.7H735.9z"/>
		<path class="st1" d="M756.3,227.7c-1,1-1.9,1.8-2.8,2.2c-0.9,0.4-1.7,0.6-2.6,0.6c-1.4,0-2.6-0.5-3.5-1.5c-0.9-1-1.4-2.4-1.4-4.1
			c0-1.2,0.3-2.3,0.8-3.2c0.5-0.9,1.3-1.6,2.3-2.1c1-0.5,2.4-0.8,4.2-0.9c1.5-0.1,2.6-0.2,3.2-0.3c0.6-0.1,1.1-0.2,1.5-0.4
			c0.3-0.9,0.4-1.7,0.4-2.2c0-0.8-0.3-1.4-0.9-1.9s-1.5-0.7-2.6-0.7c-2.3,0-3.8,1.2-4.5,3.5l-2.7-0.3c1.2-3.9,3.6-5.9,7.4-5.9
			c1.9,0,3.3,0.5,4.4,1.5c1.1,1,1.6,2.2,1.6,3.7c0,1-0.1,2.2-0.4,3.5l-1,4.8c-0.3,1.5-0.5,2.7-0.5,3.7c0,0.6,0.1,1.5,0.3,2.6h-2.8
			C756.4,229.5,756.3,228.7,756.3,227.7z M757.4,220.4c-0.7,0.3-1.8,0.6-3.4,0.7c-1.6,0.2-2.8,0.4-3.4,0.7c-0.6,0.3-1.1,0.7-1.4,1.2
			s-0.5,1.2-0.5,1.9c0,1,0.3,1.7,0.8,2.3c0.5,0.6,1.3,0.9,2.2,0.9c0.9,0,1.7-0.3,2.5-0.8s1.5-1.3,2-2.3
			C756.6,223.9,757.1,222.4,757.4,220.4z"/>
		<path class="st1" d="M770.6,230.1l2.9-16.7h-2.4l0.4-2.5h2.4l0.5-2.7c0.3-1.9,0.7-3.1,1.2-3.7c0.7-0.9,1.7-1.3,3.1-1.3
			c0.7,0,1.6,0.2,2.9,0.5l-0.5,2.9c-0.9-0.3-1.7-0.4-2.3-0.4c-0.5,0-0.9,0.2-1.2,0.5c-0.3,0.3-0.5,1.1-0.7,2.3l-0.4,2.1h3l-0.4,2.5
			h-3l-2.8,16.7H770.6z"/>
		<path class="st1" d="M778.8,222.8c0-3.5,0.8-6.4,2.3-8.8s3.6-3.6,6.3-3.6c1.8,0,3.3,0.7,4.5,2.1c1.2,1.4,1.8,3.4,1.8,6
			c0,2.4-0.4,4.5-1.2,6.4c-0.8,1.9-1.9,3.3-3.2,4.2c-1.3,0.9-2.7,1.4-4.1,1.4c-1.9,0-3.4-0.7-4.6-2.1
			C779.4,227.1,778.8,225.2,778.8,222.8z M781.5,222.5c0,1.8,0.4,3.2,1.1,4.1c0.7,0.9,1.6,1.4,2.7,1.4c0.9,0,1.7-0.3,2.6-1
			c0.9-0.7,1.6-1.8,2.2-3.4c0.6-1.6,1-3.2,1-4.9c0-1.8-0.4-3.2-1.1-4.2c-0.7-0.9-1.6-1.4-2.7-1.4c-0.9,0-1.8,0.3-2.7,1
			c-0.9,0.7-1.6,1.8-2.2,3.4C781.8,219,781.5,220.7,781.5,222.5z"/>
		<path class="st1" d="M794.9,230.1l3.3-19.2h2.4l-0.7,3.9c1.6-2.9,3.2-4.4,4.7-4.4c0.5,0,1.2,0.2,2,0.7l-1.1,3
			c-0.5-0.4-1-0.6-1.5-0.6c-1,0-2,0.6-2.9,1.9c-1,1.3-1.7,3.6-2.3,6.9l-1.3,7.7H794.9z"/>
		<path class="st1" d="M810.6,227.4l-0.5,2.7c-0.6,0.2-1.2,0.3-1.8,0.3c-1,0-1.7-0.3-2.3-0.8c-0.6-0.5-0.9-1.2-0.9-2.1
			c0-0.4,0.1-1.4,0.4-2.9l1.9-11.1h-2.1l0.4-2.5h2.1l0.8-4.6l3.1-2.3l-1.2,6.9h2.6l-0.4,2.5h-2.6l-1.8,10.6
			c-0.2,1.4-0.3,2.2-0.3,2.4c0,0.4,0.1,0.7,0.3,0.9c0.2,0.2,0.5,0.3,0.8,0.3C809.6,227.7,810.1,227.6,810.6,227.4z"/>
		<path class="st1" d="M823.3,227.7c-1,1-1.9,1.8-2.8,2.2c-0.9,0.4-1.8,0.6-2.6,0.6c-1.4,0-2.6-0.5-3.5-1.5c-0.9-1-1.4-2.4-1.4-4.1
			c0-1.2,0.3-2.3,0.8-3.2c0.5-0.9,1.3-1.6,2.3-2.1c1-0.5,2.4-0.8,4.2-0.9c1.5-0.1,2.6-0.2,3.2-0.3c0.6-0.1,1.1-0.2,1.5-0.4
			c0.3-0.9,0.4-1.7,0.4-2.2c0-0.8-0.3-1.4-0.9-1.9s-1.5-0.7-2.6-0.7c-2.3,0-3.8,1.2-4.5,3.5l-2.7-0.3c1.2-3.9,3.6-5.9,7.4-5.9
			c1.9,0,3.3,0.5,4.4,1.5c1.1,1,1.6,2.2,1.6,3.7c0,1-0.1,2.2-0.4,3.5l-1,4.8c-0.3,1.5-0.5,2.7-0.5,3.7c0,0.6,0.1,1.5,0.3,2.6h-2.8
			C823.4,229.5,823.3,228.7,823.3,227.7z M824.4,220.4c-0.7,0.3-1.8,0.6-3.4,0.7c-1.6,0.2-2.8,0.4-3.4,0.7c-0.6,0.3-1.1,0.7-1.4,1.2
			c-0.3,0.5-0.5,1.2-0.5,1.9c0,1,0.3,1.7,0.8,2.3s1.3,0.9,2.2,0.9c0.9,0,1.7-0.3,2.5-0.8s1.5-1.3,2-2.3
			C823.7,223.9,824.1,222.4,824.4,220.4z"/>
		<path class="st1" d="M829,230.1l4.5-26.5h2.7l-4.5,26.5H829z"/>
		<path class="st1" d="M847.1,223.6l2.6,0.3c-0.4,1.9-1.4,3.5-3,4.9c-1.3,1.2-2.8,1.8-4.4,1.8c-1.1,0-2.2-0.3-3.1-0.9
			c-0.9-0.6-1.7-1.5-2.2-2.8c-0.6-1.2-0.8-2.7-0.8-4.4c0-2.3,0.4-4.4,1.3-6.3c0.9-2,1.9-3.4,3.1-4.3c1.2-0.9,2.6-1.3,4-1.3
			c1.8,0,3.3,0.7,4.5,2.1c1.2,1.4,1.7,3.3,1.7,5.9c0,0.9-0.1,1.9-0.2,2.9h-11.6c0,0.4-0.1,0.7-0.1,1c0,1.8,0.3,3.2,1,4.1
			c0.7,0.9,1.5,1.4,2.5,1.4c0.9,0,1.8-0.4,2.7-1.1C845.9,226,846.6,224.9,847.1,223.6z M839.3,218.8h8.9v-0.7c0-1.7-0.3-3-1-3.9
			c-0.7-0.9-1.5-1.3-2.6-1.3c-1.1,0-2.2,0.5-3.1,1.5C840.5,215.4,839.8,216.9,839.3,218.8z"/>
		<path class="st1" d="M851.7,230.1l0.4-2.5l8.5-11.6c0.6-0.8,1.3-1.7,2-2.6c-1.3,0.2-2.2,0.2-2.8,0.2H854l0.5-2.7h12.2l-0.3,2.1
			l-8.6,11.7c-0.5,0.7-1.2,1.6-2.2,2.7c1.5-0.1,2.5-0.2,3.1-0.2h6.2l-0.5,2.9H851.7z"/>
		<path class="st1" d="M877.5,227.7c-1,1-1.9,1.8-2.8,2.2c-0.9,0.4-1.8,0.6-2.6,0.6c-1.4,0-2.6-0.5-3.5-1.5c-0.9-1-1.4-2.4-1.4-4.1
			c0-1.2,0.3-2.3,0.8-3.2c0.5-0.9,1.3-1.6,2.3-2.1c1-0.5,2.4-0.8,4.2-0.9c1.5-0.1,2.6-0.2,3.2-0.3c0.6-0.1,1.1-0.2,1.5-0.4
			c0.3-0.9,0.4-1.7,0.4-2.2c0-0.8-0.3-1.4-0.9-1.9s-1.5-0.7-2.6-0.7c-2.3,0-3.8,1.2-4.5,3.5l-2.7-0.3c1.2-3.9,3.6-5.9,7.4-5.9
			c1.9,0,3.3,0.5,4.4,1.5c1.1,1,1.6,2.2,1.6,3.7c0,1-0.1,2.2-0.4,3.5l-1,4.8c-0.3,1.5-0.5,2.7-0.5,3.7c0,0.6,0.1,1.5,0.3,2.6h-2.8
			C877.6,229.5,877.6,228.7,877.5,227.7z M878.7,220.4c-0.7,0.3-1.8,0.6-3.4,0.7c-1.6,0.2-2.8,0.4-3.4,0.7c-0.6,0.3-1.1,0.7-1.4,1.2
			c-0.3,0.5-0.5,1.2-0.5,1.9c0,1,0.3,1.7,0.8,2.3c0.5,0.6,1.3,0.9,2.2,0.9c0.9,0,1.7-0.3,2.5-0.8c0.8-0.5,1.5-1.3,2-2.3
			C877.9,223.9,878.3,222.4,878.7,220.4z"/>
	</g>
</g>
</svg>
