<?xml version="1.0" encoding="utf-8"?>
<!-- Generator: Adobe Illustrator 24.2.0, SVG Export Plug-In . SVG Version: 6.00 Build 0)  -->
<svg version="1.0" id="Capa_1" xmlns="http://www.w3.org/2000/svg" xmlns:xlink="http://www.w3.org/1999/xlink" x="0px" y="0px"
	viewBox="0 0 428.7 68" style="enable-background:new 0 0 428.7 68;" xml:space="preserve">
<g>
	<path style="fill:#006633;" d="M29.8,51.4V11.7h8.1v32.9h20.1v6.7H29.8z"/>
	<path style="fill:#006633;" d="M66.6,31.2l-7-1.3c0.8-2.8,2.1-4.9,4-6.2c1.9-1.3,4.7-2,8.5-2c3.4,0,6,0.4,7.6,1.2
		c1.7,0.8,2.9,1.8,3.5,3.1c0.7,1.2,1,3.5,1,6.9l-0.1,9c0,2.5,0.1,4.4,0.4,5.6s0.7,2.5,1.4,3.9h-7.6c-0.2-0.5-0.4-1.3-0.7-2.3
		c-0.1-0.5-0.2-0.8-0.3-0.9c-1.3,1.3-2.7,2.2-4.2,2.9s-3.1,1-4.8,1c-3,0-5.3-0.8-7.1-2.4s-2.6-3.7-2.6-6.1c0-1.6,0.4-3.1,1.2-4.4
		c0.8-1.3,1.9-2.3,3.3-2.9c1.4-0.7,3.4-1.3,6.1-1.8c3.6-0.7,6.1-1.3,7.5-1.9v-0.8c0-1.5-0.4-2.5-1.1-3.2c-0.7-0.6-2.1-0.9-4.1-0.9
		c-1.4,0-2.4,0.3-3.2,0.8C67.6,29,67,29.9,66.6,31.2z M76.8,37.5c-1,0.3-2.5,0.7-4.7,1.2C70,39.1,68.6,39.5,68,40
		c-1,0.7-1.5,1.6-1.5,2.7c0,1.1,0.4,2,1.2,2.8s1.8,1.2,3.1,1.2c1.4,0,2.7-0.5,4-1.4c0.9-0.7,1.5-1.5,1.8-2.5
		c0.2-0.7,0.3-1.9,0.3-3.7V37.5z"/>
	<path style="fill:#006633;" d="M86.4,43.1l7.7-1.2c0.3,1.5,1,2.6,2,3.4c1,0.8,2.4,1.2,4.2,1.2c2,0,3.5-0.4,4.5-1.1
		c0.7-0.5,1-1.2,1-2c0-0.6-0.2-1.1-0.5-1.4c-0.4-0.4-1.2-0.7-2.6-1c-6.2-1.4-10.1-2.6-11.8-3.7c-2.3-1.6-3.4-3.7-3.4-6.5
		c0-2.5,1-4.6,3-6.3c2-1.7,5.1-2.6,9.2-2.6c4,0,6.9,0.6,8.8,1.9c1.9,1.3,3.3,3.2,4,5.7l-7.2,1.3c-0.3-1.1-0.9-2-1.8-2.6
		c-0.9-0.6-2.1-0.9-3.7-0.9c-2,0-3.5,0.3-4.3,0.8c-0.6,0.4-0.9,0.9-0.9,1.6c0,0.5,0.3,1,0.8,1.4c0.7,0.5,3.1,1.2,7.2,2.2
		c4.1,0.9,6.9,2.1,8.6,3.4c1.6,1.4,2.4,3.3,2.4,5.7c0,2.7-1.1,4.9-3.3,6.8c-2.2,1.9-5.5,2.9-9.9,2.9c-3.9,0-7.1-0.8-9.4-2.4
		C88.6,48,87.1,45.9,86.4,43.1z"/>
	<path style="fill:#006633;" d="M125.3,51.4v-40h7.9l16.4,26.7V11.4h7.5v40h-8.1l-16.1-26.1v26.1H125.3z"/>
	<path style="fill:#006633;" d="M168.4,31.2l-7-1.3c0.8-2.8,2.1-4.9,4-6.2c1.9-1.3,4.7-2,8.5-2c3.4,0,6,0.4,7.6,1.2
		c1.7,0.8,2.9,1.8,3.5,3.1c0.7,1.2,1,3.5,1,6.9l-0.1,9c0,2.5,0.1,4.4,0.4,5.6s0.7,2.5,1.4,3.9h-7.6c-0.2-0.5-0.4-1.3-0.7-2.3
		c-0.1-0.5-0.2-0.8-0.3-0.9c-1.3,1.3-2.7,2.2-4.2,2.9s-3.1,1-4.8,1c-3,0-5.3-0.8-7.1-2.4s-2.6-3.7-2.6-6.1c0-1.6,0.4-3.1,1.2-4.4
		c0.8-1.3,1.9-2.3,3.3-2.9c1.4-0.7,3.4-1.3,6.1-1.8c3.6-0.7,6.1-1.3,7.5-1.9v-0.8c0-1.5-0.4-2.5-1.1-3.2c-0.7-0.6-2.1-0.9-4.1-0.9
		c-1.4,0-2.4,0.3-3.2,0.8C169.5,29,168.9,29.9,168.4,31.2z M178.7,37.5c-1,0.3-2.5,0.7-4.7,1.2c-2.1,0.5-3.5,0.9-4.2,1.3
		c-1,0.7-1.5,1.6-1.5,2.7c0,1.1,0.4,2,1.2,2.8s1.8,1.2,3.1,1.2c1.4,0,2.7-0.5,4-1.4c0.9-0.7,1.5-1.5,1.8-2.5
		c0.2-0.7,0.3-1.9,0.3-3.7V37.5z"/>
	<path style="fill:#006633;" d="M199,51.4l-11.7-29h8.1l5.5,14.8l1.6,4.9c0.4-1.3,0.7-2.1,0.8-2.5c0.3-0.8,0.5-1.6,0.8-2.5l5.5-14.8
		h7.9l-11.5,29H199z"/>
	<path style="fill:#006633;" d="M236.1,42.2l7.6,1.3c-1,2.8-2.5,4.9-4.7,6.4c-2.1,1.5-4.8,2.2-8,2.2c-5,0-8.8-1.6-11.2-4.9
		c-1.9-2.6-2.9-6-2.9-10c0-4.8,1.3-8.6,3.8-11.3c2.5-2.7,5.7-4.1,9.5-4.1c4.3,0,7.7,1.4,10.2,4.3c2.5,2.8,3.7,7.2,3.6,13.1h-19.2
		c0.1,2.3,0.7,4,1.9,5.3c1.2,1.3,2.7,1.9,4.4,1.9c1.2,0,2.2-0.3,3-1S235.6,43.6,236.1,42.2z M236.5,34.4c-0.1-2.2-0.6-3.9-1.7-5.1
		c-1.1-1.2-2.4-1.7-4-1.7c-1.7,0-3.1,0.6-4.1,1.8c-1.1,1.2-1.6,2.9-1.6,5H236.5z"/>
	<path style="fill:#006633;" d="M244.9,43.1l7.7-1.2c0.3,1.5,1,2.6,2,3.4c1,0.8,2.4,1.2,4.2,1.2c2,0,3.5-0.4,4.5-1.1
		c0.7-0.5,1-1.2,1-2c0-0.6-0.2-1.1-0.5-1.4c-0.4-0.4-1.2-0.7-2.6-1c-6.2-1.4-10.1-2.6-11.8-3.7c-2.3-1.6-3.4-3.7-3.4-6.5
		c0-2.5,1-4.6,3-6.3c2-1.7,5.1-2.6,9.2-2.6c4,0,6.9,0.6,8.8,1.9c1.9,1.3,3.3,3.2,4,5.7l-7.2,1.3c-0.3-1.1-0.9-2-1.8-2.6
		c-0.9-0.6-2.1-0.9-3.7-0.9c-2,0-3.5,0.3-4.3,0.8c-0.6,0.4-0.9,0.9-0.9,1.6c0,0.5,0.3,1,0.8,1.4c0.7,0.5,3.1,1.2,7.2,2.2
		c4.1,0.9,6.9,2.1,8.6,3.4c1.6,1.4,2.4,3.3,2.4,5.7c0,2.7-1.1,4.9-3.3,6.8c-2.2,1.9-5.5,2.9-9.9,2.9c-3.9,0-7.1-0.8-9.4-2.4
		C247.1,48,245.6,45.9,244.9,43.1z"/>
	<path style="fill:#95C11F;" d="M283.5,51.4v-40h12.1l7.3,27.3l7.2-27.3h12.1v40h-7.5V19.9l-7.9,31.5H299L291,19.9v31.5H283.5z"/>
	<path style="fill:#95C11F;" d="M325.6,36.5c0-2.5,0.6-5,1.9-7.4s3-4.2,5.3-5.5c2.3-1.3,4.9-1.9,7.7-1.9c4.4,0,8,1.4,10.8,4.3
		c2.8,2.8,4.2,6.4,4.2,10.8c0,4.4-1.4,8-4.2,10.9c-2.8,2.9-6.4,4.3-10.7,4.3c-2.7,0-5.2-0.6-7.6-1.8c-2.4-1.2-4.2-3-5.5-5.3
		S325.6,39.8,325.6,36.5z M333.4,36.9c0,2.9,0.7,5.1,2,6.6c1.4,1.5,3,2.3,5,2.3c2,0,3.7-0.8,5-2.3c1.4-1.5,2-3.7,2-6.7
		c0-2.8-0.7-5-2-6.5c-1.4-1.5-3-2.3-5-2.3c-2,0-3.7,0.8-5,2.3C334.1,31.8,333.4,34,333.4,36.9z M336.7,18.9l3.8-8.2h8.6l-7.5,8.2
		H336.7z"/>
	<path style="fill:#95C11F;" d="M366.7,51.4l-11.7-29h8.1l5.5,14.8l1.6,4.9c0.4-1.3,0.7-2.1,0.8-2.5c0.3-0.8,0.5-1.6,0.8-2.5
		l5.5-14.8h7.9l-11.5,29H366.7z"/>
	<path style="fill:#95C11F;" d="M387,18.5v-7.1h7.7v7.1H387z M387,51.4v-29h7.7v29H387z"/>
	<path style="fill:#95C11F;" d="M399.7,51.4v-40h7.7v40H399.7z"/>
</g>
</svg>
